<svg width="24" height="24" viewBox="0 0 24 24" fill="none" xmlns="http://www.w3.org/2000/svg">
<path fill-rule="evenodd" clip-rule="evenodd" d="M24 10.7813C24 11.299 23.5803 11.7188 23.0625 11.7188C22.5447 11.7188 22.125 11.299 22.125 10.7813V5.625C22.125 4.59113 21.2839 3.75 20.25 3.75H19.0312V4.6875C19.0312 5.20528 18.6115 5.625 18.0938 5.625C17.576 5.625 17.1562 5.20528 17.1562 4.6875V3.75H12.8906V4.6875C12.8906 5.20528 12.4709 5.625 11.9531 5.625C11.4353 5.625 11.0156 5.20528 11.0156 4.6875V3.75H6.79688V4.6875C6.79688 5.20528 6.37716 5.625 5.85938 5.625C5.34159 5.625 4.92188 5.20528 4.92188 4.6875V3.75H3.75C2.71613 3.75 1.875 4.59113 1.875 5.625V20.25C1.875 21.2839 2.71613 22.125 3.75 22.125H14.8125V18.2813C14.8125 16.2135 16.4948 14.5313 18.5625 14.5313H23.0625C23.4385 14.5313 23.7781 14.7559 23.9252 15.1018C24.0724 15.4478 23.9986 15.8482 23.7378 16.119L16.4253 23.7128C16.245 23.9 15.9998 24 15.7498 24C15.7189 24 15.6879 23.9983 15.657 23.9952C15.626 23.9984 15.5944 24 15.5625 24H3.75C1.68225 24 0 22.3178 0 20.25V5.625C0 3.55725 1.68225 1.875 3.75 1.875H4.92188V0.9375C4.92188 0.419719 5.34159 0 5.85938 0C6.37716 0 6.79688 0.419719 6.79688 0.9375V1.875H11.0156V0.9375C11.0156 0.419719 11.4353 0 11.9531 0C12.4709 0 12.8906 0.419719 12.8906 0.9375V1.875H17.1562V0.9375C17.1562 0.419719 17.576 0 18.0938 0C18.6115 0 19.0312 0.419719 19.0312 0.9375V1.875H20.25C22.3177 1.875 24 3.55725 24 5.625V10.7813ZM18.5625 16.4063C17.5286 16.4063 16.6875 17.2474 16.6875 18.2813V20.7374L20.8582 16.4063H18.5625ZM14.9524 9.84377C14.9524 10.3615 14.5327 10.7813 14.0149 10.7813C13.4971 10.7813 13.0774 10.3615 13.0774 9.84377C13.0774 9.326 13.4971 8.90627 14.0149 8.90627C14.5327 8.90627 14.9524 9.326 14.9524 9.84377ZM14.9524 13.9219C14.9524 14.4397 14.5327 14.8594 14.0149 14.8594C13.4971 14.8594 13.0774 14.4397 13.0774 13.9219C13.0774 13.4041 13.4971 12.9844 14.0149 12.9844C14.5327 12.9844 14.9524 13.4041 14.9524 13.9219ZM18.0938 10.7813C18.6115 10.7813 19.0313 10.3615 19.0313 9.84377C19.0313 9.326 18.6115 8.90627 18.0938 8.90627C17.576 8.90627 17.1563 9.326 17.1563 9.84377C17.1563 10.3615 17.576 10.7813 18.0938 10.7813ZM5.85861 10.7813C6.37638 10.7813 6.79611 10.3615 6.79611 9.84377C6.79611 9.326 6.37638 8.90627 5.85861 8.90627C5.34085 8.90627 4.92111 9.326 4.92111 9.84377C4.92111 10.3615 5.34085 10.7813 5.85861 10.7813ZM10.875 13.9219C10.875 14.4397 10.4553 14.8594 9.93753 14.8594C9.41976 14.8594 9.00003 14.4397 9.00003 13.9219C9.00003 13.4041 9.41976 12.9844 9.93753 12.9844C10.4553 12.9844 10.875 13.4041 10.875 13.9219ZM5.85861 18.9375C6.37638 18.9375 6.79611 18.5178 6.79611 18C6.79611 17.4822 6.37638 17.0625 5.85861 17.0625C5.34085 17.0625 4.92111 17.4822 4.92111 18C4.92111 18.5178 5.34085 18.9375 5.85861 18.9375ZM6.79611 13.9219C6.79611 14.4397 6.37638 14.8594 5.85861 14.8594C5.34085 14.8594 4.92111 14.4397 4.92111 13.9219C4.92111 13.4041 5.34085 12.9844 5.85861 12.9844C6.37638 12.9844 6.79611 13.4041 6.79611 13.9219ZM9.93753 18.9375C10.4553 18.9375 10.875 18.5178 10.875 18C10.875 17.4822 10.4553 17.0625 9.93753 17.0625C9.41976 17.0625 9.00003 17.4822 9.00003 18C9.00003 18.5178 9.41976 18.9375 9.93753 18.9375ZM10.875 9.84377C10.875 10.3615 10.4553 10.7813 9.93753 10.7813C9.41976 10.7813 9.00003 10.3615 9.00003 9.84377C9.00003 9.326 9.41976 8.90627 9.93753 8.90627C10.4553 8.90627 10.875 9.326 10.875 9.84377Z" fill="#FFDC00"/>
</svg>
