<?xml version="1.0" encoding="utf-8"?>
<!-- Generator: Adobe Illustrator 23.0.1, SVG Export Plug-In . SVG Version: 6.00 Build 0)  -->
<svg version="1.1" id="Слой_1" xmlns="http://www.w3.org/2000/svg" xmlns:xlink="http://www.w3.org/1999/xlink" x="0px" y="0px"
	 viewBox="0 0 1600 4668" style="enable-background:new 0 0 1600 4668;" xml:space="preserve">
<g>
	<path d="M2.8,424.2c-0.7,0-1.5-0.3-2-0.8c-0.5-0.5-0.8-1.2-0.8-2c0-0.2,0-0.4,0-0.5c0-0.2,0.1-0.4,0.2-0.5c0.1-0.2,0.2-0.3,0.3-0.5
		c0.1-0.2,0.2-0.3,0.4-0.4c1-1.1,2.9-1.1,4,0c0.1,0.1,0.2,0.3,0.4,0.4c0.1,0.1,0.2,0.3,0.3,0.5c0.1,0.2,0.1,0.3,0.2,0.5
		c0,0.2,0.1,0.4,0.1,0.5c0,0.7-0.3,1.5-0.8,2C4.3,423.9,3.6,424.2,2.8,424.2z"/>
	<path d="M1426.5,3906.5c-1.6,0-2.8-1.3-2.8-2.8l0,0c0-1.6,1.3-2.8,2.8-2.8l0,0c0,0,0,0,0,0l0,0c1.6,0,2.8,1.3,2.8,2.8l0,0
		C1429.3,3905.2,1428,3906.5,1426.5,3906.5L1426.5,3906.5z M1409.5,3906.5c-1.6,0-2.8-1.3-2.8-2.8l0,0c0-1.6,1.3-2.8,2.8-2.8l0,0
		l0,0l0,0c1.6,0,2.8,1.3,2.8,2.8l0,0C1412.3,3905.2,1411.1,3906.5,1409.5,3906.5L1409.5,3906.5
		C1409.5,3906.5,1409.5,3906.5,1409.5,3906.5z M1440.6,3903.6c0-1.6,1.3-2.8,2.8-2.8l0,0c1.6,0,2.8,1.3,2.8,2.8l0,0
		c0,1.6-1.2,2.8-2.8,2.8l0,0h0l0,0C1441.9,3906.5,1440.6,3905.2,1440.6,3903.6z M1392.5,3906.3c-1.6,0-2.8-1.3-2.8-2.9l0,0
		c0-1.6,1.3-2.8,2.9-2.8l0,0c1.6,0,2.8,1.3,2.8,2.9l0,0C1395.4,3905.1,1394.1,3906.3,1392.5,3906.3L1392.5,3906.3
		C1392.6,3906.3,1392.5,3906.3,1392.5,3906.3z M1457.6,3903.5c0-1.6,1.2-2.8,2.8-2.9l0,0c1.6,0,2.8,1.2,2.9,2.8l0,0
		c0,1.6-1.2,2.8-2.8,2.9l0,0c0,0,0,0,0,0l0,0C1458.9,3906.3,1457.6,3905.1,1457.6,3903.5z M1375.6,3906.1c-1.6,0-2.8-1.3-2.8-2.9
		l0,0c0-1.6,1.3-2.8,2.9-2.8l0,0l0,0l0,0c1.6,0,2.8,1.3,2.8,2.9l0,0C1378.4,3904.9,1377.1,3906.1,1375.6,3906.1L1375.6,3906.1
		C1375.6,3906.1,1375.6,3906.1,1375.6,3906.1z M1474.5,3903.3c0-1.6,1.2-2.9,2.8-2.9l0,0c1.6,0,2.8,1.2,2.9,2.8l0,0
		c0,1.6-1.2,2.9-2.8,2.9l0,0c0,0,0,0,0,0l0,0C1475.8,3906.1,1474.6,3904.8,1474.5,3903.3z M1358.6,3905.7c-1.6,0-2.8-1.3-2.8-2.9
		l0,0c0-1.6,1.3-2.8,2.9-2.8l0,0c1.6,0,2.8,1.3,2.8,2.9l0,0C1361.4,3904.5,1360.2,3905.7,1358.6,3905.7L1358.6,3905.7
		C1358.6,3905.7,1358.6,3905.7,1358.6,3905.7z M1491.5,3903c0-1.6,1.2-2.9,2.8-2.9l0,0l0,0l0,0c1.6,0,2.9,1.2,2.9,2.8l0,0
		c0,1.6-1.2,2.9-2.8,2.9l0,0c0,0,0,0-0.1,0l0,0C1492.8,3905.7,1491.5,3904.5,1491.5,3903z M1341.6,3905.3c-1.6,0-2.8-1.3-2.7-2.9
		l0,0c0-1.6,1.3-2.8,2.9-2.7l0,0l0,0l0,0c1.6,0,2.8,1.3,2.7,2.9l0,0C1344.5,3904.1,1343.2,3905.3,1341.6,3905.3L1341.6,3905.3
		C1341.7,3905.3,1341.7,3905.3,1341.6,3905.3z M1508.4,3902.6c0-1.6,1.2-2.9,2.7-2.9l0,0c1.6,0,2.9,1.2,2.9,2.8l0,0
		c0,1.6-1.2,2.9-2.7,2.9l0,0c0,0-0.1,0-0.1,0l0,0C1509.7,3905.3,1508.5,3904.1,1508.4,3902.6z M1324.7,3904.8
		c-1.6,0-2.8-1.4-2.7-2.9l0,0c0-1.6,1.4-2.8,2.9-2.7l0,0c1.6,0,2.8,1.4,2.7,2.9l0,0c-0.1,1.5-1.3,2.7-2.8,2.7l0,0
		C1324.7,3904.8,1324.7,3904.8,1324.7,3904.8z M1525.4,3902c-0.1-1.6,1.2-2.9,2.7-2.9l0,0l0,0l0,0c1.6,0,2.9,1.2,2.9,2.7l0,0
		c0.1,1.6-1.2,2.9-2.7,2.9l0,0c0,0-0.1,0-0.1,0l0,0C1526.7,3904.8,1525.4,3903.6,1525.4,3902z M1307.7,3904.1
		c-1.6-0.1-2.8-1.4-2.7-2.9l0,0c0.1-1.6,1.4-2.8,2.9-2.7l0,0c1.6,0.1,2.8,1.4,2.7,2.9l0,0c-0.1,1.5-1.3,2.7-2.8,2.7l0,0
		C1307.8,3904.2,1307.7,3904.1,1307.7,3904.1z M1542.3,3901.4c-0.1-1.6,1.1-2.9,2.7-2.9l0,0c1.6-0.1,2.9,1.1,2.9,2.7l0,0
		c0.1,1.6-1.1,2.9-2.7,2.9l0,0c0,0-0.1,0-0.1,0l0,0C1543.6,3904.1,1542.4,3902.9,1542.3,3901.4z M1290.7,3903.4
		c-1.6-0.1-2.8-1.4-2.7-3l0,0c0.1-1.6,1.4-2.8,3-2.7l0,0l0,0l0,0c1.6,0.1,2.8,1.4,2.7,3l0,0c-0.1,1.5-1.3,2.7-2.8,2.7l0,0
		C1290.8,3903.4,1290.8,3903.4,1290.7,3903.4z M1559.3,3900.7c-0.1-1.6,1.1-2.9,2.7-3l0,0c1.6-0.1,2.9,1.1,3,2.7l0,0
		c0.1,1.6-1.1,2.9-2.7,3l0,0c0,0-0.1,0-0.1,0l0,0C1560.6,3903.4,1559.3,3902.2,1559.3,3900.7z M1273.8,3902.6
		c-1.6-0.1-2.8-1.4-2.7-3l0,0c0.1-1.6,1.4-2.8,3-2.7l0,0c1.6,0.1,2.8,1.4,2.7,3l0,0c-0.1,1.5-1.3,2.7-2.8,2.7l0,0
		C1273.9,3902.6,1273.8,3902.6,1273.8,3902.6z M1576.2,3899.8c-0.1-1.6,1.1-2.9,2.7-3l0,0c0,0,0,0,0,0l0,0c1.6-0.1,2.9,1.1,3,2.7
		l0,0c0.1,1.6-1.1,2.9-2.7,3l0,0c0,0-0.1,0-0.1,0l0,0C1577.5,3902.5,1576.3,3901.4,1576.2,3899.8z M1256.8,3901.7
		c-1.6-0.1-2.8-1.4-2.7-3l0,0c0.1-1.6,1.4-2.8,3-2.7l0,0c1.6,0.1,2.8,1.4,2.7,3l0,0c-0.1,1.5-1.3,2.7-2.8,2.7l0,0
		C1256.9,3901.7,1256.9,3901.7,1256.8,3901.7z M1239.9,3900.6c-1.6-0.1-2.7-1.4-2.6-3l0,0c0.1-1.6,1.4-2.7,3-2.6l0,0c0,0,0,0,0,0
		l0,0c1.6,0.1,2.7,1.4,2.6,3l0,0c-0.1,1.5-1.3,2.7-2.8,2.7l0,0C1240,3900.7,1240,3900.7,1239.9,3900.6z M1223,3899.5
		c-1.6-0.1-2.7-1.5-2.6-3l0,0c0.1-1.6,1.5-2.7,3-2.6l0,0c1.6,0.1,2.7,1.5,2.6,3l0,0c-0.1,1.5-1.4,2.6-2.8,2.6l0,0
		C1223.1,3899.5,1223,3899.5,1223,3899.5z M1206,3898.3c-1.6-0.1-2.7-1.5-2.6-3l0,0c0.1-1.6,1.5-2.7,3-2.6l0,0
		c1.6,0.1,2.7,1.5,2.6,3l0,0c-0.1,1.5-1.3,2.6-2.8,2.6l0,0C1206.2,3898.3,1206.1,3898.3,1206,3898.3z M1189.1,3897
		c-1.6-0.1-2.7-1.5-2.6-3l0,0c0.1-1.6,1.5-2.7,3-2.6l0,0c1.6,0.1,2.7,1.5,2.6,3.1l0,0c-0.1,1.5-1.4,2.6-2.8,2.6l0,0
		C1189.3,3897,1189.2,3897,1189.1,3897z M1172.2,3895.6c-1.6-0.1-2.7-1.5-2.6-3.1l0,0c0.1-1.6,1.5-2.7,3-2.6l0,0
		c1.6,0.1,2.7,1.5,2.6,3.1l0,0c-0.1,1.5-1.4,2.6-2.8,2.6l0,0C1172.4,3895.6,1172.3,3895.6,1172.2,3895.6z M1155.3,3894.1
		L1155.3,3894.1c-1.6-0.1-2.7-1.5-2.6-3.1l0,0c0.1-1.6,1.5-2.7,3.1-2.6l0,0c1.5,0.1,2.7,1.5,2.5,3.1l0,0c-0.1,1.5-1.4,2.6-2.8,2.6
		l0,0C1155.5,3894.1,1155.4,3894.1,1155.3,3894.1z M1138.4,3892.4c-1.6-0.2-2.7-1.5-2.5-3.1l0,0c0.2-1.6,1.5-2.7,3.1-2.5l0,0
		c0,0,0,0,0,0l0,0c1.5,0.1,2.7,1.5,2.5,3.1l0,0c-0.1,1.5-1.4,2.5-2.8,2.5l0,0C1138.6,3892.5,1138.5,3892.5,1138.4,3892.4z
		 M1121.5,3890.7c-1.5-0.2-2.7-1.6-2.5-3.1l0,0c0.2-1.5,1.6-2.7,3.1-2.5l0,0c1.6,0.2,2.7,1.6,2.5,3.1l0,0c-0.2,1.5-1.4,2.5-2.8,2.5
		l0,0C1121.7,3890.7,1121.6,3890.7,1121.5,3890.7z M1104.6,3888.9c-1.6-0.2-2.7-1.6-2.5-3.1l0,0c0.2-1.6,1.6-2.7,3.1-2.5l0,0
		c1.6,0.2,2.7,1.6,2.5,3.1l0,0c-0.2,1.4-1.4,2.5-2.8,2.5l0,0C1104.8,3888.9,1104.7,3888.9,1104.6,3888.9z M1087.8,3887L1087.8,3887
		c-1.6-0.2-2.7-1.6-2.5-3.1l0,0c0.2-1.6,1.6-2.7,3.1-2.5l0,0l0,0l0,0c1.5,0.2,2.7,1.6,2.5,3.1l0,0c-0.2,1.4-1.4,2.5-2.8,2.5l0,0
		C1088,3887,1087.9,3887,1087.8,3887z M1070.9,3885c-1.6-0.2-2.7-1.6-2.5-3.1l0,0c0.2-1.5,1.6-2.7,3.1-2.5l0,0l0,0l0,0
		c1.5,0.2,2.6,1.6,2.5,3.1l0,0c-0.2,1.4-1.4,2.5-2.8,2.5l0,0C1071.1,3885,1071,3885,1070.9,3885z M1054.1,3882.9
		c-1.5-0.2-2.6-1.6-2.4-3.2l0,0c0.2-1.5,1.6-2.6,3.2-2.4l0,0c1.6,0.2,2.6,1.6,2.4,3.2l0,0c-0.2,1.4-1.4,2.5-2.8,2.5l0,0
		C1054.3,3882.9,1054.2,3882.9,1054.1,3882.9z M1037.2,3880.6c-1.5-0.2-2.6-1.6-2.4-3.2l0,0c0.2-1.5,1.6-2.6,3.2-2.4l0,0l0,0l0,0
		c1.5,0.2,2.6,1.6,2.4,3.2l0,0c-0.2,1.4-1.4,2.5-2.8,2.5l0,0C1037.5,3880.7,1037.4,3880.7,1037.2,3880.6z M1020.4,3878.3
		c-1.5-0.2-2.6-1.7-2.4-3.2l0,0c0.2-1.5,1.6-2.6,3.2-2.4l0,0c1.5,0.2,2.6,1.6,2.4,3.2l0,0c-0.2,1.4-1.4,2.4-2.8,2.4l0,0
		C1020.7,3878.4,1020.6,3878.3,1020.4,3878.3z M1003.6,3875.9L1003.6,3875.9c-1.5-0.2-2.6-1.7-2.4-3.2l0,0c0.2-1.5,1.7-2.6,3.2-2.4
		l0,0c1.5,0.2,2.6,1.7,2.4,3.2l0,0c-0.2,1.4-1.4,2.4-2.8,2.4l0,0C1003.9,3875.9,1003.8,3875.9,1003.6,3875.9z M986.8,3873.4
		L986.8,3873.4c-1.5-0.2-2.6-1.7-2.4-3.2l0,0c0.2-1.5,1.7-2.6,3.2-2.4l0,0c0,0,0,0,0,0l0,0c1.5,0.2,2.6,1.7,2.4,3.2l0,0
		c-0.2,1.4-1.4,2.4-2.8,2.4l0,0C987.1,3873.4,987,3873.4,986.8,3873.4z M970.1,3870.8L970.1,3870.8c-1.5-0.2-2.6-1.7-2.3-3.2l0,0
		c0.2-1.5,1.7-2.6,3.2-2.3l0,0l0,0l0,0c1.5,0.2,2.6,1.7,2.3,3.2l0,0c-0.2,1.4-1.4,2.4-2.8,2.4l0,0
		C970.4,3870.8,970.2,3870.8,970.1,3870.8z M953.3,3868L953.3,3868c-1.5-0.2-2.6-1.7-2.3-3.2l0,0c0.3-1.5,1.7-2.6,3.3-2.3l0,0
		c0,0,0,0,0,0l0,0c1.5,0.3,2.6,1.7,2.3,3.2l0,0c-0.2,1.4-1.4,2.4-2.8,2.4l0,0C953.6,3868.1,953.5,3868.1,953.3,3868z M936.6,3865.2
		L936.6,3865.2c-1.5-0.3-2.6-1.7-2.3-3.3l0,0c0.3-1.5,1.7-2.6,3.3-2.3l0,0c1.5,0.3,2.6,1.7,2.3,3.3l0,0c-0.2,1.4-1.4,2.4-2.8,2.4
		l0,0C936.9,3865.3,936.7,3865.2,936.6,3865.2z M919.8,3862.3c-1.5-0.3-2.6-1.7-2.3-3.3l0,0c0.3-1.5,1.7-2.6,3.3-2.3l0,0
		c1.5,0.3,2.6,1.7,2.3,3.3l0,0c-0.2,1.4-1.4,2.3-2.8,2.3l0,0C920.2,3862.3,920,3862.3,919.8,3862.3z M903.1,3859.3
		c-1.5-0.3-2.6-1.8-2.3-3.3l0,0c0.3-1.5,1.8-2.6,3.3-2.3l0,0l0,0l0,0c1.5,0.3,2.6,1.8,2.3,3.3l0,0c-0.2,1.4-1.4,2.3-2.8,2.3l0,0
		C903.5,3859.3,903.3,3859.3,903.1,3859.3z M886.4,3856.2c-1.5-0.3-2.5-1.8-2.3-3.3l0,0c0.3-1.5,1.8-2.5,3.3-2.3l0,0l0,0l0,0
		c1.5,0.3,2.5,1.8,2.3,3.3l0,0c-0.3,1.4-1.4,2.3-2.8,2.3l0,0C886.8,3856.2,886.6,3856.2,886.4,3856.2z M869.8,3853
		c-1.5-0.3-2.5-1.8-2.2-3.3l0,0c0.3-1.5,1.8-2.5,3.3-2.2l0,0c1.5,0.3,2.5,1.8,2.2,3.3l0,0c-0.3,1.3-1.4,2.3-2.8,2.3l0,0
		C870.1,3853,869.9,3853,869.8,3853z M853.1,3849.7L853.1,3849.7c-1.5-0.3-2.5-1.8-2.2-3.3l0,0c0.3-1.5,1.8-2.5,3.3-2.2l0,0l0,0l0,0
		c1.5,0.3,2.5,1.8,2.2,3.3l0,0c-0.3,1.3-1.4,2.3-2.8,2.3l0,0C853.5,3849.7,853.3,3849.7,853.1,3849.7z M836.5,3846.3
		c-1.5-0.3-2.5-1.8-2.2-3.3l0,0c0.3-1.5,1.8-2.5,3.3-2.2l0,0c1.5,0.3,2.5,1.8,2.2,3.3l0,0c-0.3,1.3-1.5,2.3-2.8,2.3l0,0
		C836.9,3846.4,836.7,3846.3,836.5,3846.3z M819.9,3842.8L819.9,3842.8c-1.5-0.3-2.5-1.8-2.2-3.4l0,0c0.3-1.5,1.8-2.5,3.4-2.2l0,0
		c1.5,0.3,2.5,1.8,2.2,3.4l0,0c-0.3,1.3-1.5,2.2-2.8,2.2l0,0C820.3,3842.8,820.1,3842.8,819.9,3842.8z M803.3,3839.1
		c-1.5-0.3-2.5-1.9-2.1-3.4l0,0c0.3-1.5,1.8-2.5,3.4-2.1l0,0c1.5,0.3,2.5,1.8,2.1,3.4l0,0c-0.3,1.3-1.5,2.2-2.8,2.2l0,0
		C803.7,3839.2,803.5,3839.2,803.3,3839.1z M786.7,3835.4L786.7,3835.4c-1.5-0.4-2.5-1.9-2.1-3.4l0,0c0.3-1.5,1.9-2.5,3.4-2.1l0,0
		c1.5,0.4,2.5,1.9,2.1,3.4l0,0c-0.3,1.3-1.5,2.2-2.8,2.2l0,0C787.1,3835.4,786.9,3835.4,786.7,3835.4z M770.2,3831.5
		c-1.5-0.4-2.5-1.9-2.1-3.4l0,0c0.4-1.5,1.9-2.4,3.4-2.1l0,0c1.5,0.4,2.4,1.9,2.1,3.4l0,0c-0.3,1.3-1.5,2.2-2.8,2.2l0,0
		C770.6,3831.5,770.4,3831.5,770.2,3831.5z M753.7,3827.4L753.7,3827.4c-1.5-0.4-2.4-1.9-2.1-3.4l0,0c0.4-1.5,1.9-2.4,3.4-2.1l0,0
		c1.5,0.4,2.4,1.9,2.1,3.4l0,0c-0.3,1.3-1.5,2.1-2.7,2.1l0,0C754.1,3827.5,753.9,3827.5,753.7,3827.4z M737.2,3823.2
		c-1.5-0.4-2.4-1.9-2-3.4l0,0c0.4-1.5,1.9-2.4,3.4-2l0,0c1.5,0.4,2.4,1.9,2,3.4l0,0c-0.3,1.3-1.5,2.1-2.7,2.1l0,0
		C737.7,3823.3,737.5,3823.3,737.2,3823.2z M720.8,3818.8c-1.5-0.4-2.4-2-2-3.5l0,0c0.4-1.5,2-2.4,3.5-2l0,0c1.5,0.4,2.4,2,2,3.5
		l0,0c-0.3,1.3-1.5,2.1-2.7,2.1l0,0C721.3,3818.9,721.1,3818.9,720.8,3818.8z M704.4,3814.3c-1.5-0.4-2.4-2-1.9-3.5l0,0
		c0.4-1.5,2-2.4,3.5-2l0,0c1.5,0.4,2.4,2,2,3.5l0,0c-0.4,1.2-1.5,2.1-2.7,2.1l0,0C705,3814.4,704.7,3814.4,704.4,3814.3z
		 M688.1,3809.6c-1.5-0.4-2.4-2-1.9-3.5l0,0c0.4-1.5,2-2.3,3.5-1.9l0,0c1.5,0.4,2.4,2,1.9,3.5l0,0c-0.4,1.2-1.5,2-2.7,2l0,0
		C688.7,3809.7,688.4,3809.7,688.1,3809.6z M671.9,3804.7c-1.5-0.5-2.3-2-1.9-3.5l0,0c0.5-1.5,2-2.3,3.5-1.9l0,0
		c1.5,0.5,2.3,2,1.9,3.5l0,0c-0.4,1.2-1.5,2-2.7,2l0,0C672.4,3804.8,672.1,3804.8,671.9,3804.7z M655.7,3799.6
		c-1.5-0.5-2.3-2.1-1.8-3.6l0,0c0.5-1.5,2.1-2.3,3.5-1.8l0,0l0,0l0,0c1.5,0.5,2.3,2.1,1.8,3.6l0,0c-0.4,1.2-1.5,2-2.7,2l0,0
		C656.2,3799.7,655.9,3799.7,655.7,3799.6z M639.5,3794.3c-1.5-0.5-2.3-2.1-1.8-3.6l0,0c0.5-1.5,2.1-2.3,3.6-1.8l0,0
		c1.5,0.5,2.3,2.1,1.8,3.6l0,0c-0.4,1.2-1.5,1.9-2.7,1.9l0,0C640.1,3794.4,639.8,3794.4,639.5,3794.3z M623.4,3788.8
		c-1.5-0.5-2.3-2.1-1.7-3.6l0,0c0.5-1.5,2.1-2.3,3.6-1.7l0,0c1.5,0.5,2.3,2.1,1.7,3.6l0,0c-0.4,1.2-1.5,1.9-2.7,1.9l0,0
		C624,3789,623.7,3788.9,623.4,3788.8z M607.4,3783.1L607.4,3783.1c-1.5-0.5-2.2-2.2-1.7-3.6l0,0c0.5-1.5,2.2-2.2,3.6-1.7l0,0
		c0,0,0,0,0,0l0,0c1.5,0.5,2.2,2.2,1.7,3.6l0,0c-0.4,1.1-1.5,1.9-2.7,1.9l0,0C608.1,3783.3,607.7,3783.2,607.4,3783.1z
		 M591.5,3777.1c-1.5-0.6-2.2-2.2-1.6-3.6l0,0c0.5-1.5,2.2-2.2,3.6-1.6l0,0c1.5,0.6,2.2,2.2,1.6,3.6l0,0c-0.4,1.1-1.5,1.8-2.7,1.8
		l0,0C592.2,3777.3,591.8,3777.3,591.5,3777.1z M575.7,3771c-1.4-0.6-2.2-2.2-1.6-3.7l0,0c0.6-1.5,2.2-2.2,3.7-1.6l0,0
		c1.5,0.6,2.2,2.2,1.6,3.7l0,0c-0.4,1.1-1.5,1.8-2.6,1.8l0,0C576.4,3771.2,576,3771.1,575.7,3771z M559.9,3764.6
		c-1.4-0.6-2.1-2.3-1.5-3.7l0,0c0.6-1.4,2.3-2.1,3.7-1.5l0,0c1.4,0.6,2.1,2.3,1.5,3.7l0,0c-0.5,1.1-1.5,1.7-2.6,1.7l0,0
		C560.6,3764.8,560.3,3764.7,559.9,3764.6z M544.3,3757.9c-1.4-0.6-2.1-2.3-1.5-3.7l0,0c0.6-1.4,2.3-2.1,3.7-1.5l0,0c0,0,0,0,0,0
		l0,0c1.4,0.6,2.1,2.3,1.5,3.7l0,0c-0.5,1.1-1.5,1.7-2.6,1.7l0,0C545,3758.1,544.6,3758.1,544.3,3757.9z M528.7,3750.9L528.7,3750.9
		c-1.4-0.7-2-2.4-1.4-3.8l0,0c0.7-1.4,2.4-2,3.8-1.4l0,0c1.4,0.7,2,2.3,1.4,3.8l0,0c-0.5,1-1.5,1.6-2.6,1.6l0,0
		C529.5,3751.2,529.1,3751.1,528.7,3750.9z M513.4,3743.4c-1.4-0.7-1.9-2.4-1.2-3.8l0,0c0.7-1.4,2.4-1.9,3.8-1.2l0,0l0,0l0,0
		c1.4,0.7,1.9,2.4,1.2,3.8l0,0c-0.5,1-1.5,1.5-2.5,1.5l0,0C514.3,3743.7,513.8,3743.6,513.4,3743.4z M498.4,3735.4
		c-1.4-0.8-1.9-2.5-1.1-3.8l0,0c0.8-1.4,2.5-1.9,3.8-1.1l0,0c1.4,0.8,1.9,2.5,1.1,3.8l0,0c-0.5,0.9-1.5,1.5-2.5,1.5l0,0
		C499.3,3735.8,498.8,3735.6,498.4,3735.4z M483.6,3726.9c-1.3-0.8-1.8-2.5-1-3.9l0,0c0.8-1.3,2.5-1.8,3.9-1l0,0
		c1.3,0.8,1.8,2.5,1,3.9l0,0c-0.5,0.9-1.5,1.4-2.4,1.4l0,0C484.5,3727.3,484,3727.2,483.6,3726.9z M469.1,3718L469.1,3718
		c-1.3-0.8-1.7-2.6-0.8-3.9l0,0c0.8-1.3,2.6-1.7,3.9-0.8l0,0c1.3,0.8,1.7,2.6,0.8,3.9l0,0c-0.5,0.8-1.4,1.3-2.4,1.3l0,0
		C470.1,3718.4,469.6,3718.3,469.1,3718z M455,3708.5c-1.3-0.9-1.6-2.7-0.7-3.9l0,0c0.9-1.3,2.7-1.6,3.9-0.7l0,0
		c1.3,0.9,1.6,2.7,0.7,3.9l0,0c-0.5,0.8-1.4,1.2-2.3,1.2l0,0C456,3709,455.4,3708.8,455,3708.5z M441.2,3698.5
		c-1.2-0.9-1.5-2.7-0.6-3.9l0,0c0.9-1.3,2.7-1.5,4-0.6l0,0c1.2,0.9,1.5,2.7,0.6,4l0,0c-0.6,0.7-1.4,1.1-2.3,1.1l0,0
		C442.3,3699,441.7,3698.8,441.2,3698.5z M427.7,3687.9c-1.2-1-1.4-2.8-0.4-4l0,0c1-1.2,2.8-1.4,4-0.4l0,0c1.2,1,1.4,2.8,0.4,4l0,0
		c-0.6,0.7-1.4,1-2.2,1l0,0C428.9,3688.6,428.3,3688.4,427.7,3687.9z M414.7,3676.9c-1.2-1-1.3-2.8-0.2-4l0,0c1-1.2,2.8-1.3,4-0.2
		l0,0l0,0l0,0c1.2,1,1.3,2.8,0.2,4l0,0c-0.6,0.6-1.3,0.9-2.1,0.9l0,0C415.9,3677.6,415.3,3677.4,414.7,3676.9z M402.2,3665.3
		L402.2,3665.3c-1.1-1.1-1.2-2.9-0.1-4l0,0c1.1-1.1,2.9-1.2,4-0.1l0,0l0,0l0,0c1.1,1.1,1.1,2.9,0.1,4l0,0c-0.6,0.6-1.3,0.9-2,0.9
		l0,0C403.5,3666.1,402.8,3665.8,402.2,3665.3z M390.2,3653.2c-1.1-1.1-1-2.9,0.1-4l0,0c1.1-1.1,2.9-1,4,0.1l0,0
		c1.1,1.1,1,2.9-0.1,4l0,0c-0.5,0.5-1.2,0.8-1.9,0.8l0,0C391.5,3654.1,390.7,3653.8,390.2,3653.2z M378.7,3640.5L378.7,3640.5
		c-1-1.2-0.9-3,0.3-4l0,0c1.2-1,3-0.9,4,0.3l0,0c1,1.2,0.9,3-0.3,4l0,0c-0.5,0.5-1.2,0.7-1.8,0.7l0,0
		C380,3641.5,379.3,3641.2,378.7,3640.5z M367.8,3627.4L367.8,3627.4c-1-1.2-0.7-3,0.5-4l0,0c1.2-1,3-0.8,4,0.5l0,0
		c1,1.2,0.8,3-0.5,4l0,0c-0.5,0.4-1.1,0.6-1.8,0.6l0,0C369.2,3628.5,368.4,3628.1,367.8,3627.4z M357.6,3613.7
		c-0.9-1.3-0.6-3,0.7-3.9l0,0c1.3-0.9,3-0.6,3.9,0.7l0,0c0.9,1.3,0.6,3-0.7,3.9l0,0c-0.5,0.3-1.1,0.5-1.6,0.5l0,0
		C359,3614.9,358.1,3614.5,357.6,3613.7z M348,3599.6c-0.8-1.3-0.5-3.1,0.9-3.9l0,0c1.3-0.8,3.1-0.5,3.9,0.9l0,0
		c0.8,1.3,0.5,3.1-0.8,3.9l0,0c-0.5,0.3-1,0.4-1.5,0.4l0,0C349.4,3600.9,348.5,3600.4,348,3599.6z M339.1,3584.9
		c-0.8-1.4-0.3-3.1,1.1-3.9l0,0c1.4-0.8,3.1-0.3,3.9,1.1l0,0c0.8,1.4,0.3,3.1-1.1,3.9l0,0c-0.4,0.2-0.9,0.4-1.4,0.4l0,0
		C340.6,3586.4,339.6,3585.9,339.1,3584.9z M331,3569.9L331,3569.9c-0.7-1.4-0.1-3.1,1.2-3.8l0,0c1.4-0.7,3.1-0.1,3.8,1.3l0,0l0,0
		l0,0c0.7,1.4,0.1,3.1-1.3,3.8l0,0c-0.4,0.2-0.8,0.3-1.3,0.3l0,0C332.5,3571.4,331.5,3570.9,331,3569.9z M323.7,3554.4L323.7,3554.4
		c-0.6-1.4,0-3.1,1.4-3.7l0,0c1.4-0.6,3.1,0,3.7,1.5l0,0c0.6,1.4,0,3.1-1.5,3.7l0,0c-0.4,0.2-0.7,0.2-1.1,0.2l0,0
		C325.2,3556.1,324.2,3555.4,323.7,3554.4z M317.3,3538.5c-0.5-1.5,0.2-3.1,1.7-3.6l0,0c1.5-0.5,3.1,0.2,3.6,1.7l0,0l0,0l0,0
		c0.5,1.5-0.2,3.1-1.7,3.6l0,0c-0.3,0.1-0.7,0.2-1,0.2l0,0C318.8,3540.4,317.7,3539.7,317.3,3538.5z M311.7,3522.4
		c-0.5-1.5,0.4-3.1,1.8-3.5l0,0c1.5-0.5,3.1,0.4,3.5,1.8l0,0c0.5,1.5-0.4,3.1-1.8,3.5l0,0c-0.3,0.1-0.6,0.1-0.9,0.1l0,0
		C313.2,3524.3,312.1,3523.6,311.7,3522.4z M307,3505.9L307,3505.9c-0.4-1.5,0.5-3,2-3.4l0,0c1.5-0.4,3,0.5,3.4,2l0,0l0,0l0,0
		c0.4,1.5-0.5,3.1-2,3.4l0,0c-0.2,0.1-0.5,0.1-0.7,0.1l0,0C308.5,3508.1,307.3,3507.2,307,3505.9z M303.2,3489.3L303.2,3489.3
		c-0.3-1.5,0.7-3,2.2-3.3l0,0c1.5-0.3,3,0.7,3.3,2.2l0,0l0,0l0,0c0.3,1.5-0.7,3-2.2,3.3l0,0c-0.2,0-0.4,0-0.6,0l0,0
		C304.6,3491.5,303.5,3490.6,303.2,3489.3z M300.3,3472.4L300.3,3472.4c-0.2-1.6,0.8-3,2.4-3.2l0,0c1.5-0.2,3,0.8,3.2,2.4l0,0
		c0.2,1.5-0.8,3-2.4,3.2l0,0c-0.1,0-0.3,0-0.4,0l0,0C301.7,3474.8,300.5,3473.8,300.3,3472.4z M298.2,3455.4c-0.1-1.5,1-2.9,2.5-3.1
		l0,0c1.6-0.2,2.9,1,3.1,2.5l0,0c0.1,1.6-1,2.9-2.5,3.1l0,0c-0.1,0-0.2,0-0.3,0l0,0C299.6,3458,298.4,3456.9,298.2,3455.4z
		 M296.9,3438.4c-0.1-1.6,1.1-2.9,2.7-3l0,0c1.6-0.1,2.9,1.1,3,2.7l0,0c0.1,1.6-1.1,2.9-2.7,3l0,0c0,0-0.1,0-0.1,0l0,0
		C298.3,3441.1,297,3439.9,296.9,3438.4z M296.5,3421.3c0-1.6,1.3-2.8,2.8-2.8l0,0c1.6,0,2.8,1.3,2.8,2.8l0,0c0,0,0,0,0,0l0,0
		c0,1.6-1.3,2.8-2.8,2.8l0,0C297.8,3424.1,296.5,3422.9,296.5,3421.3z M299.5,3407.2c-1.6-0.1-2.8-1.4-2.7-2.9l0,0
		c0.1-1.6,1.4-2.8,3-2.7l0,0c1.6,0.1,2.8,1.4,2.7,2.9l0,0c-0.1,1.5-1.3,2.7-2.8,2.7l0,0C299.6,3407.2,299.6,3407.2,299.5,3407.2z
		 M300.6,3390.3c-1.6-0.1-2.7-1.5-2.6-3.1l0,0c0.1-1.6,1.5-2.7,3.1-2.6l0,0c1.5,0.1,2.7,1.5,2.5,3.1l0,0c-0.1,1.5-1.4,2.6-2.8,2.6
		l0,0C300.7,3390.3,300.7,3390.3,300.6,3390.3z M302.4,3373.5c-1.5-0.2-2.6-1.6-2.4-3.2l0,0c0.2-1.5,1.6-2.6,3.2-2.4l0,0
		c1.5,0.2,2.6,1.6,2.4,3.2l0,0l0,0l0,0c-0.2,1.4-1.4,2.4-2.8,2.4l0,0C302.6,3373.5,302.5,3373.5,302.4,3373.5z M305,3356.7
		c-1.5-0.3-2.6-1.8-2.3-3.3l0,0c0.3-1.5,1.8-2.6,3.3-2.3l0,0c1.5,0.3,2.5,1.8,2.3,3.3l0,0c-0.2,1.4-1.4,2.3-2.8,2.3l0,0
		C305.3,3356.8,305.2,3356.8,305,3356.7z M308.3,3340.1c-1.5-0.4-2.5-1.9-2.1-3.4l0,0c0.3-1.5,1.9-2.5,3.4-2.1l0,0
		c1.5,0.3,2.5,1.9,2.1,3.4l0,0c-0.3,1.3-1.5,2.2-2.8,2.2l0,0C308.8,3340.2,308.6,3340.2,308.3,3340.1z M312.5,3323.7
		c-1.5-0.4-2.4-2-2-3.5l0,0c0.4-1.5,2-2.4,3.5-2l0,0c1.5,0.4,2.4,2,2,3.5l0,0l0,0l0,0c-0.3,1.2-1.5,2.1-2.7,2.1l0,0
		C313,3323.8,312.7,3323.7,312.5,3323.7z M317.3,3307.4c-1.5-0.5-2.3-2.1-1.8-3.6l0,0c0.5-1.5,2.1-2.3,3.6-1.8l0,0
		c1.5,0.5,2.3,2.1,1.8,3.6l0,0c-0.4,1.2-1.5,1.9-2.7,1.9l0,0C317.8,3307.6,317.6,3307.5,317.3,3307.4z M322.8,3291.4
		c-1.5-0.5-2.2-2.2-1.7-3.6l0,0c0.5-1.5,2.2-2.2,3.6-1.7l0,0c1.5,0.5,2.2,2.2,1.7,3.6l0,0l0,0l0,0c-0.4,1.1-1.5,1.8-2.6,1.8l0,0
		C323.4,3291.6,323.1,3291.5,322.8,3291.4z M328.9,3275.6c-1.4-0.6-2.1-2.3-1.5-3.7l0,0c0.6-1.4,2.3-2.1,3.7-1.5l0,0
		c1.4,0.6,2.1,2.3,1.5,3.7l0,0l0,0l0,0c-0.5,1.1-1.5,1.7-2.6,1.7l0,0C329.6,3275.8,329.3,3275.7,328.9,3275.6z M335.7,3260
		c-1.4-0.7-2-2.3-1.4-3.7l0,0c0.7-1.4,2.3-2,3.8-1.4l0,0c1.4,0.7,2,2.3,1.4,3.7l0,0c-0.5,1-1.5,1.6-2.6,1.6l0,0
		C336.5,3260.3,336.1,3260.2,335.7,3260z M343.1,3244.8c-1.4-0.7-1.9-2.4-1.2-3.8l0,0c0.7-1.4,2.4-1.9,3.8-1.2l0,0
		c1.4,0.7,1.9,2.4,1.2,3.8l0,0l0,0l0,0c-0.5,1-1.5,1.5-2.5,1.5l0,0C343.9,3245.1,343.5,3245,343.1,3244.8z M351,3229.8
		c-1.4-0.8-1.9-2.5-1.1-3.8l0,0c0.8-1.4,2.5-1.9,3.8-1.1l0,0c1.4,0.8,1.8,2.5,1.1,3.8l0,0c-0.5,0.9-1.5,1.4-2.5,1.4l0,0
		C351.9,3230.1,351.4,3230,351,3229.8z M359.4,3215c-1.3-0.8-1.8-2.5-1-3.9l0,0c0.8-1.3,2.6-1.8,3.9-1l0,0c1.3,0.8,1.8,2.6,0.9,3.9
		l0,0c-0.5,0.9-1.5,1.4-2.4,1.4l0,0C360.4,3215.4,359.9,3215.3,359.4,3215z M368.4,3200.6c-1.3-0.9-1.7-2.6-0.8-3.9l0,0
		c0.8-1.3,2.6-1.7,3.9-0.8l0,0c1.3,0.8,1.7,2.6,0.8,3.9l0,0c-0.5,0.8-1.4,1.3-2.4,1.3l0,0C369.4,3201.1,368.9,3200.9,368.4,3200.6z
		 M377.8,3186.5c-1.3-0.9-1.6-2.7-0.7-3.9l0,0c0.9-1.3,2.7-1.6,3.9-0.7l0,0c1.3,0.9,1.6,2.7,0.7,3.9l0,0c-0.5,0.8-1.4,1.2-2.3,1.2
		l0,0C378.9,3187,378.3,3186.8,377.8,3186.5z M387.7,3172.7c-1.2-0.9-1.5-2.7-0.6-3.9l0,0c0.9-1.3,2.7-1.5,3.9-0.6l0,0
		c1.3,0.9,1.5,2.7,0.6,3.9l0,0c-0.6,0.7-1.4,1.1-2.3,1.1l0,0C388.8,3173.3,388.2,3173.1,387.7,3172.7z M398,3159.2
		c-1.2-1-1.4-2.8-0.5-4l0,0c1-1.2,2.7-1.4,4-0.5l0,0c1.2,1,1.4,2.7,0.5,4l0,0c-0.6,0.7-1.4,1.1-2.2,1.1l0,0
		C399.1,3159.8,398.5,3159.6,398,3159.2z M408.6,3146c-1.2-1-1.3-2.8-0.3-4l0,0c1-1.2,2.8-1.3,4-0.3l0,0c1.2,1,1.3,2.8,0.3,4l0,0
		c-0.6,0.7-1.4,1-2.2,1l0,0C409.8,3146.7,409.2,3146.5,408.6,3146z M419.7,3133.1c-1.2-1-1.3-2.8-0.2-4l0,0c1-1.2,2.8-1.3,4-0.2l0,0
		c1.2,1,1.3,2.8,0.2,4l0,0c-0.6,0.6-1.3,0.9-2.1,0.9l0,0C420.9,3133.8,420.2,3133.6,419.7,3133.1z M431.1,3120.6
		c-1.1-1.1-1.2-2.8-0.1-4l0,0c1.1-1.1,2.9-1.2,4-0.1l0,0c1.1,1.1,1.2,2.9,0.1,4l0,0l0,0l0,0c-0.6,0.6-1.3,0.9-2.1,0.9l0,0
		C432.3,3121.3,431.6,3121.1,431.1,3120.6z M442.8,3108.3c-1.1-1.1-1.1-2.9,0-4v0c1.1-1.1,2.9-1.1,4,0l0,0c1.1,1.1,1.1,2.9,0,4l0,0
		c-0.5,0.6-1.3,0.8-2,0.8l0,0C444.1,3109.1,443.3,3108.9,442.8,3108.3z M454.8,3096.4c-1.1-1.1-1-2.9,0.1-4v0c1.1-1.1,2.9-1,4,0.1
		l0,0c1.1,1.1,1,2.9-0.1,4l0,0c-0.5,0.5-1.3,0.8-2,0.8l0,0C456.1,3097.2,455.4,3096.9,454.8,3096.4z M467.2,3084.8c-1-1.2-1-3,0.2-4
		l0,0c1.2-1,2.9-1,4,0.2l0,0c1.1,1.1,1,2.9-0.2,4l0,0c-0.5,0.5-1.2,0.7-1.9,0.7l0,0C468.5,3085.7,467.7,3085.4,467.2,3084.8z
		 M479.8,3073.4c-1-1.2-0.9-3,0.3-4v0c1.2-1,3-0.9,4,0.3l0,0c1,1.2,0.9,3-0.3,4l0,0c-0.5,0.5-1.2,0.7-1.9,0.7l0,0
		C481.1,3074.4,480.4,3074.1,479.8,3073.4z M492.7,3062.4c-1-1.2-0.8-3,0.4-4l0,0c1.2-1,3-0.8,4,0.4l0,0c1,1.2,0.8,3-0.4,4l0,0
		c-0.5,0.4-1.2,0.6-1.8,0.6l0,0C494.1,3063.5,493.2,3063.1,492.7,3062.4z M505.8,3051.8c-1-1.2-0.8-3,0.5-4l0,0c1.2-1,3-0.7,4,0.5
		l0,0c1,1.2,0.7,3-0.5,4l0,0c-0.5,0.4-1.1,0.6-1.7,0.6l0,0C507.2,3052.8,506.4,3052.5,505.8,3051.8z M519.3,3041.4
		c-0.9-1.3-0.7-3,0.6-3.9l0,0c1.3-0.9,3-0.7,4,0.6l0,0c0.9,1.3,0.7,3-0.6,3.9l0,0c-0.5,0.4-1.1,0.6-1.7,0.6l0,0
		C520.7,3042.6,519.8,3042.2,519.3,3041.4z M533,3031.4c-0.9-1.3-0.6-3,0.7-3.9l0,0c1.3-0.9,3-0.6,3.9,0.7l0,0
		c0.9,1.3,0.6,3-0.7,3.9l0,0c-0.5,0.3-1.1,0.5-1.6,0.5l0,0C534.4,3032.7,533.5,3032.2,533,3031.4z M547,3021.9
		c-0.9-1.3-0.5-3.1,0.8-3.9l0,0c1.3-0.9,3.1-0.5,3.9,0.8l0,0c0.9,1.3,0.5,3.1-0.8,3.9l0,0c-0.5,0.3-1,0.5-1.5,0.5l0,0
		C548.4,3023.1,547.5,3022.7,547,3021.9z M561.2,3012.7c-0.8-1.3-0.4-3.1,0.9-3.9l0,0c1.3-0.8,3.1-0.4,3.9,0.9l0,0
		c0.8,1.3,0.4,3.1-0.9,3.9l0,0c-0.5,0.3-1,0.4-1.5,0.4l0,0C562.7,3014,561.8,3013.5,561.2,3012.7z M575.7,3003.9
		c-0.8-1.3-0.3-3.1,1-3.9v0c1.3-0.8,3.1-0.3,3.9,1l0,0c0.8,1.3,0.3,3.1-1,3.9l0,0l0,0l0,0c-0.4,0.3-0.9,0.4-1.4,0.4l0,0
		C577.2,3005.3,576.2,3004.8,575.7,3003.9z M590.4,2995.5c-0.8-1.4-0.3-3.1,1.1-3.8l0,0c1.4-0.8,3.1-0.3,3.8,1.1l0,0
		c0.8,1.4,0.3,3.1-1.1,3.8l0,0c-0.4,0.2-0.9,0.4-1.4,0.4l0,0C591.9,2996.9,590.9,2996.4,590.4,2995.5z M605.3,2987.4
		c-0.7-1.4-0.2-3.1,1.2-3.8l0,0c1.4-0.7,3.1-0.2,3.8,1.2l0,0c0.7,1.4,0.2,3.1-1.2,3.8l0,0c-0.4,0.2-0.9,0.3-1.3,0.3l0,0
		C606.8,2988.9,605.8,2988.4,605.3,2987.4z M620.4,2979.7c-0.7-1.4-0.1-3.1,1.3-3.8l0,0c1.4-0.7,3.1-0.1,3.8,1.3l0,0
		c0.7,1.4,0.1,3.1-1.3,3.8l0,0l0,0l0,0c-0.4,0.2-0.8,0.3-1.2,0.3l0,0C621.8,2981.3,620.8,2980.7,620.4,2979.7z M635.6,2972.4
		c-0.7-1.4,0-3.1,1.4-3.7l0,0c1.4-0.7,3.1,0,3.7,1.4l0,0c0.7,1.4,0,3.1-1.4,3.7l0,0c-0.4,0.2-0.8,0.3-1.2,0.3l0,0
		C637.1,2974,636.1,2973.4,635.6,2972.4z M651,2965.4c-0.6-1.4,0-3.1,1.5-3.7l0,0c1.4-0.6,3.1,0,3.7,1.5l0,0c0.6,1.4,0,3.1-1.5,3.7
		l0,0c-0.4,0.2-0.8,0.2-1.1,0.2l0,0C652.5,2967.1,651.5,2966.5,651,2965.4z M666.6,2958.7c-0.6-1.4,0.1-3.1,1.5-3.7l0,0
		c1.4-0.6,3.1,0.1,3.7,1.5l0,0c0.6,1.4-0.1,3.1-1.5,3.7l0,0c-0.4,0.1-0.7,0.2-1.1,0.2l0,0C668.1,2960.5,667.1,2959.8,666.6,2958.7z
		 M682.3,2952.4c-0.6-1.5,0.2-3.1,1.6-3.7l0,0c1.5-0.6,3.1,0.1,3.7,1.6l0,0c0.6,1.5-0.2,3.1-1.6,3.7l0,0c-0.3,0.1-0.7,0.2-1,0.2l0,0
		C683.8,2954.2,682.8,2953.5,682.3,2952.4z M698.2,2946.3c-0.5-1.5,0.2-3.1,1.7-3.6l0,0c1.5-0.5,3.1,0.2,3.6,1.7l0,0
		c0.5,1.5-0.2,3.1-1.7,3.6l0,0c-0.3,0.1-0.7,0.2-1,0.2l0,0C699.7,2948.2,698.6,2947.5,698.2,2946.3z M714.1,2940.6
		c-0.5-1.5,0.3-3.1,1.7-3.6v0c1.5-0.5,3.1,0.3,3.6,1.7l0,0c0.5,1.5-0.3,3.1-1.7,3.6l0,0l0,0l0,0c-0.3,0.1-0.6,0.2-0.9,0.2l0,0
		C715.6,2942.4,714.5,2941.7,714.1,2940.6z M730.2,2935c-0.5-1.5,0.3-3.1,1.8-3.6l0,0c1.5-0.5,3.1,0.3,3.6,1.8l0,0
		c0.5,1.5-0.3,3.1-1.8,3.6l0,0l0,0l0,0c-0.3,0.1-0.6,0.1-0.9,0.1l0,0C731.7,2937,730.6,2936.2,730.2,2935z M746.3,2929.8
		c-0.5-1.5,0.3-3.1,1.8-3.5l0,0c1.5-0.5,3.1,0.4,3.5,1.8l0,0c0.5,1.5-0.4,3.1-1.8,3.5l0,0c-0.3,0.1-0.6,0.1-0.8,0.1l0,0
		C747.8,2931.8,746.7,2931,746.3,2929.8z M762.5,2924.8c-0.4-1.5,0.4-3.1,1.9-3.5l0,0c1.5-0.4,3.1,0.4,3.5,1.9l0,0
		c0.5,1.5-0.4,3.1-1.9,3.5l0,0c-0.3,0.1-0.5,0.1-0.8,0.1l0,0C764,2926.8,762.9,2926,762.5,2924.8z M778.8,2919.9
		c-0.4-1.5,0.4-3.1,1.9-3.5l0,0c1.5-0.4,3.1,0.4,3.5,1.9l0,0c0.4,1.5-0.4,3.1-1.9,3.5l0,0c-0.3,0.1-0.5,0.1-0.8,0.1l0,0
		C780.3,2922,779.1,2921.2,778.8,2919.9z M795.1,2915.3c-0.4-1.5,0.5-3.1,2-3.5l0,0c1.5-0.4,3.1,0.5,3.5,2l0,0
		c0.4,1.5-0.5,3.1-2,3.5l0,0c-0.2,0.1-0.5,0.1-0.8,0.1l0,0C796.6,2917.4,795.4,2916.6,795.1,2915.3z M811.5,2910.9
		c-0.4-1.5,0.5-3.1,2-3.5l0,0c1.5-0.4,3.1,0.5,3.5,2l0,0c0.4,1.5-0.5,3.1-2,3.5l0,0c-0.2,0.1-0.5,0.1-0.7,0.1l0,0
		C812.9,2913,811.8,2912.1,811.5,2910.9z M827.9,2906.6c-0.4-1.5,0.5-3,2-3.4l0,0c1.5-0.4,3,0.5,3.4,2l0,0c0.4,1.5-0.5,3.1-2,3.4
		l0,0c-0.2,0.1-0.5,0.1-0.7,0.1l0,0C829.4,2908.7,828.2,2907.8,827.9,2906.6z M844.3,2902.4c-0.4-1.5,0.5-3,2.1-3.4l0,0
		c1.5-0.4,3,0.5,3.4,2.1l0,0c0.4,1.5-0.5,3-2.1,3.4l0,0c-0.2,0.1-0.5,0.1-0.7,0.1l0,0C845.8,2904.5,844.7,2903.7,844.3,2902.4z
		 M860.8,2898.3c-0.4-1.5,0.6-3,2.1-3.4l0,0c1.5-0.4,3,0.6,3.4,2.1l0,0c0.4,1.5-0.6,3-2.1,3.4l0,0c-0.2,0.1-0.4,0.1-0.7,0.1l0,0
		C862.3,2900.5,861.1,2899.6,860.8,2898.3z M877.3,2894.4c-0.4-1.5,0.6-3,2.1-3.4l0,0c1.5-0.4,3,0.6,3.4,2.1l0,0
		c0.3,1.5-0.6,3-2.1,3.4l0,0l0,0l0,0c-0.2,0-0.4,0.1-0.7,0.1l0,0C878.8,2896.6,877.6,2895.7,877.3,2894.4z M893.9,2890.5
		c-0.4-1.5,0.6-3,2.1-3.4l0,0c1.5-0.4,3,0.6,3.4,2.1l0,0c0.3,1.5-0.6,3-2.1,3.4l0,0l0,0l0,0c-0.2,0-0.4,0.1-0.6,0.1l0,0
		C895.3,2892.7,894.2,2891.8,893.9,2890.5z M910.4,2886.7c-0.3-1.5,0.6-3,2.1-3.4l0,0c1.5-0.3,3,0.6,3.4,2.1l0,0
		c0.3,1.5-0.6,3-2.1,3.4l0,0c-0.2,0-0.4,0.1-0.6,0.1l0,0C911.9,2888.9,910.7,2888,910.4,2886.7z M926.9,2882.9
		c-0.3-1.5,0.6-3,2.1-3.4l0,0c1.5-0.3,3,0.6,3.4,2.1l0,0c0.3,1.5-0.6,3-2.1,3.4l0,0l0,0l0,0c-0.2,0.1-0.4,0.1-0.6,0.1l0,0
		C928.4,2885.1,927.2,2884.2,926.9,2882.9z M943.5,2879.2c-0.3-1.5,0.6-3,2.1-3.4l0,0c1.5-0.3,3,0.6,3.4,2.1l0,0
		c0.3,1.5-0.6,3-2.1,3.4l0,0c-0.2,0-0.4,0.1-0.6,0.1l0,0C944.9,2881.4,943.8,2880.5,943.5,2879.2z M960,2875.4
		c-0.3-1.5,0.6-3,2.1-3.4l0,0c1.5-0.3,3,0.6,3.4,2.1l0,0c0.3,1.5-0.6,3-2.1,3.4l0,0c-0.2,0-0.4,0.1-0.6,0.1l0,0
		C961.5,2877.6,960.3,2876.7,960,2875.4z M976.6,2871.7c-0.3-1.5,0.6-3,2.1-3.4l0,0c1.5-0.3,3,0.6,3.4,2.1l0,0
		c0.3,1.5-0.6,3-2.1,3.4l0,0c-0.2,0-0.4,0.1-0.6,0.1l0,0C978,2873.9,976.9,2873,976.6,2871.7z M993.1,2867.9c-0.3-1.5,0.6-3,2.1-3.4
		l0,0c1.5-0.3,3,0.6,3.4,2.1l0,0c0.3,1.5-0.6,3-2.1,3.4l0,0l0,0l0,0c-0.2,0.1-0.4,0.1-0.6,0.1l0,0
		C994.6,2870.1,993.4,2869.2,993.1,2867.9z M1009.6,2864.1c-0.3-1.5,0.6-3.1,2.1-3.4l0,0c1.5-0.3,3,0.6,3.4,2.1l0,0
		c0.3,1.5-0.6,3-2.1,3.4l0,0c-0.2,0-0.4,0.1-0.6,0.1l0,0C1011.1,2866.2,1010,2865.4,1009.6,2864.1z M1026.2,2860.2
		c-0.4-1.5,0.6-3,2.1-3.4l0,0c1.5-0.4,3,0.6,3.4,2.1l0,0c0.4,1.5-0.6,3.1-2.1,3.4l0,0c-0.2,0.1-0.4,0.1-0.6,0.1l0,0
		C1027.6,2862.4,1026.5,2861.5,1026.2,2860.2z M1042.7,2856.3c-0.4-1.5,0.6-3,2.1-3.4l0,0c1.5-0.4,3,0.6,3.4,2.1l0,0
		c0.4,1.5-0.6,3-2.1,3.4l0,0c-0.2,0-0.4,0.1-0.7,0.1l0,0C1044.2,2858.4,1043,2857.6,1042.7,2856.3z M1059.2,2852.2
		c-0.4-1.5,0.5-3.1,2.1-3.4l0,0c1.5-0.4,3.1,0.5,3.4,2l0,0c0.4,1.5-0.5,3.1-2,3.4l0,0c-0.2,0.1-0.5,0.1-0.7,0.1l0,0
		C1060.6,2854.4,1059.5,2853.5,1059.2,2852.2z M1075.6,2848c-0.4-1.5,0.5-3.1,2-3.5v0c1.5-0.4,3.1,0.5,3.5,2l0,0
		c0.4,1.5-0.5,3.1-2,3.4l0,0c0,0,0,0,0,0l0,0c-0.2,0.1-0.5,0.1-0.7,0.1l0,0C1077.1,2850.1,1075.9,2849.3,1075.6,2848z M1092,2843.6
		c-0.4-1.5,0.5-3.1,2-3.5l0,0c1.5-0.4,3.1,0.5,3.5,2l0,0c0.4,1.5-0.5,3.1-2,3.5l0,0c-0.3,0.1-0.5,0.1-0.8,0.1l0,0
		C1093.5,2845.7,1092.3,2844.9,1092,2843.6z M1108.3,2839c-0.4-1.5,0.4-3.1,1.9-3.5l0,0c1.5-0.4,3.1,0.4,3.5,1.9l0,0
		c0.4,1.5-0.4,3.1-1.9,3.5l0,0c-0.3,0.1-0.5,0.1-0.8,0.1l0,0C1109.8,2841,1108.7,2840.2,1108.3,2839z M1124.6,2834.1
		c-0.5-1.5,0.4-3.1,1.8-3.5l0,0c1.5-0.5,3.1,0.4,3.5,1.9l0,0c0.5,1.5-0.4,3.1-1.9,3.5l0,0c-0.3,0.1-0.6,0.1-0.8,0.1l0,0
		C1126.1,2836.1,1125,2835.3,1124.6,2834.1z M1140.7,2828.9c-0.5-1.5,0.3-3.1,1.8-3.6l0,0c1.5-0.5,3.1,0.3,3.6,1.8l0,0
		c0.5,1.5-0.3,3.1-1.8,3.6l0,0c-0.3,0.1-0.6,0.1-0.9,0.1l0,0C1142.2,2830.8,1141.1,2830.1,1140.7,2828.9z M1156.8,2823.3
		c-0.5-1.5,0.2-3.1,1.7-3.6l0,0c1.5-0.5,3.1,0.2,3.6,1.7l0,0c0.5,1.5-0.2,3.1-1.7,3.6l0,0c0,0,0,0,0,0l0,0c-0.3,0.1-0.6,0.2-1,0.2
		l0,0C1158.3,2825.2,1157.2,2824.5,1156.8,2823.3z M1172.7,2817.4c-0.6-1.5,0.1-3.1,1.6-3.7l0,0c1.4-0.6,3.1,0.1,3.7,1.6l0,0
		c0.6,1.5-0.1,3.1-1.6,3.7l0,0c-0.3,0.1-0.7,0.2-1,0.2l0,0C1174.2,2819.2,1173.1,2818.6,1172.7,2817.4z M1188.4,2811.1
		c-0.6-1.4,0.1-3.1,1.5-3.7l0,0c1.4-0.6,3.1,0.1,3.7,1.5l0,0c0.6,1.4-0.1,3.1-1.5,3.7l0,0c-0.4,0.2-0.7,0.2-1.1,0.2l0,0
		C1189.9,2812.9,1188.8,2812.2,1188.4,2811.1z M1203.9,2804.3c-0.7-1.4,0-3.1,1.4-3.7l0,0c1.4-0.7,3.1,0,3.8,1.4l0,0
		c0.6,1.4,0,3.1-1.4,3.7l0,0c-0.4,0.2-0.8,0.3-1.2,0.3l0,0C1205.4,2806,1204.4,2805.4,1203.9,2804.3z M1219.2,2797.1
		c-0.7-1.4-0.1-3.1,1.3-3.8h0c1.4-0.7,3.1-0.1,3.8,1.2l0,0c0.7,1.4,0.1,3.1-1.2,3.8l0,0l0,0l0,0c-0.4,0.2-0.8,0.3-1.3,0.3l0,0
		C1220.7,2798.6,1219.7,2798.1,1219.2,2797.1z M1234.2,2789.3c-0.8-1.4-0.3-3.1,1.1-3.8l0,0c1.4-0.8,3.1-0.3,3.8,1.1l0,0
		c0.8,1.4,0.3,3.1-1.1,3.8l0,0c-0.4,0.2-0.9,0.4-1.4,0.4l0,0C1235.7,2790.7,1234.7,2790.2,1234.2,2789.3z M1248.9,2780.9
		c-0.8-1.3-0.4-3.1,0.9-3.9l0,0c1.3-0.8,3.1-0.4,3.9,0.9l0,0c0.8,1.3,0.4,3.1-0.9,3.9l0,0c-0.5,0.3-1,0.4-1.5,0.4l0,0
		C1250.4,2782.2,1249.5,2781.7,1248.9,2780.9z M1263.2,2771.8c-0.9-1.3-0.5-3.1,0.8-3.9l0,0c1.3-0.9,3-0.5,3.9,0.8l0,0
		c0.9,1.3,0.5,3.1-0.8,3.9l0,0l0,0l0,0c-0.5,0.3-1,0.5-1.6,0.5l0,0C1264.7,2773.1,1263.8,2772.6,1263.2,2771.8z M1277.1,2762.1
		c-0.9-1.2-0.7-3,0.6-3.9l0,0c1.2-0.9,3-0.7,3.9,0.6l0,0c0.9,1.2,0.7,3-0.6,4l0,0l0,0l0,0c-0.5,0.4-1.1,0.6-1.7,0.6l0,0
		C1278.5,2763.3,1277.7,2762.9,1277.1,2762.1z M1290.5,2751.7c-1-1.2-0.8-3,0.3-4v0c1.2-1,3-0.9,4,0.3l0,0c1,1.2,0.8,3-0.3,4l0,0
		c-0.5,0.4-1.2,0.7-1.8,0.7l0,0C1291.8,2752.7,1291,2752.4,1290.5,2751.7z M1303.2,2740.6c-1.1-1.1-1-2.9,0.1-4l0,0
		c1.1-1.1,2.9-1,4,0.1l0,0c1.1,1.1,1,2.9-0.1,4l0,0l0,0l0,0c-0.5,0.5-1.2,0.8-1.9,0.8l0,0
		C1304.5,2741.5,1303.8,2741.2,1303.2,2740.6z M1315.3,2728.7c-1.1-1.1-1.2-2.9-0.1-4l0,0c1.1-1.1,2.9-1.2,4-0.1l0,0
		c1.1,1.1,1.2,2.9,0.1,4l0,0c-0.5,0.6-1.3,0.9-2.1,0.9l0,0C1316.6,2729.5,1315.9,2729.2,1315.3,2728.7z M1326.6,2716.1
		c-1.2-1-1.4-2.8-0.4-4h0c1-1.2,2.8-1.4,4-0.4l0,0c1.2,1,1.4,2.8,0.4,4l0,0l0,0l0,0c-0.6,0.7-1.4,1-2.2,1l0,0
		C1327.8,2716.7,1327.2,2716.5,1326.6,2716.1z M1337.1,2702.7c-1.3-0.9-1.6-2.7-0.7-3.9h0c0.9-1.3,2.7-1.6,3.9-0.7l0,0
		c1.3,0.9,1.6,2.7,0.7,3.9l0,0c-0.5,0.8-1.4,1.2-2.3,1.2l0,0C1338.2,2703.3,1337.6,2703.1,1337.1,2702.7z M1346.6,2688.7
		c-1.3-0.8-1.8-2.6-0.9-3.9l0,0c0.8-1.3,2.6-1.7,3.9-0.9l0,0c1.3,0.8,1.7,2.6,0.9,3.9l0,0c-0.5,0.9-1.5,1.3-2.4,1.3l0,0
		C1347.6,2689.1,1347.1,2689,1346.6,2688.7z M1355.1,2674c-1.4-0.7-1.9-2.4-1.2-3.8l0,0c0.7-1.4,2.4-1.9,3.8-1.2l0,0
		c1.4,0.7,1.9,2.4,1.2,3.8l0,0c0,0,0,0,0,0l0,0c-0.5,1-1.5,1.5-2.5,1.5l0,0C1355.9,2674.4,1355.5,2674.3,1355.1,2674z
		 M1362.4,2658.8c-1.4-0.6-2.1-2.3-1.5-3.7l0,0c0.6-1.4,2.3-2.1,3.7-1.5l0,0c1.4,0.6,2.1,2.3,1.5,3.7l0,0c-0.5,1.1-1.5,1.7-2.6,1.7
		l0,0C1363.1,2659,1362.8,2658.9,1362.4,2658.8z M1368.6,2643c-1.5-0.5-2.3-2.1-1.8-3.6h0c0.5-1.5,2.1-2.3,3.6-1.8l0,0
		c1.5,0.5,2.3,2.1,1.8,3.6l0,0l0,0l0,0c-0.4,1.2-1.5,1.9-2.7,1.9l0,0C1369.2,2643.1,1368.9,2643.1,1368.6,2643z M1373.6,2626.8
		c-1.5-0.4-2.4-1.9-2-3.4l0,0c0.4-1.5,1.9-2.4,3.4-2l0,0c1.5,0.4,2.4,1.9,2,3.4l0,0c-0.3,1.3-1.5,2.1-2.7,2.1l0,0
		C1374.1,2626.9,1373.8,2626.8,1373.6,2626.8z M1377.4,2610.3c-1.5-0.3-2.6-1.8-2.3-3.3l0,0c0.3-1.5,1.8-2.6,3.3-2.3l0,0
		c1.5,0.3,2.6,1.8,2.3,3.3l0,0c-0.2,1.4-1.4,2.3-2.8,2.3l0,0C1377.8,2610.3,1377.6,2610.3,1377.4,2610.3z M1380.1,2593.5
		c-1.6-0.2-2.7-1.6-2.5-3.1l0,0c0.2-1.5,1.6-2.7,3.1-2.5l0,0c1.6,0.2,2.7,1.6,2.5,3.1l0,0c-0.2,1.4-1.4,2.5-2.8,2.5l0,0
		C1380.3,2593.5,1380.2,2593.5,1380.1,2593.5z M1381.6,2576.6c-1.6-0.1-2.8-1.4-2.7-2.9l0,0c0.1-1.6,1.4-2.8,2.9-2.7l0,0
		c1.6,0.1,2.8,1.4,2.7,2.9l0,0c-0.1,1.5-1.3,2.7-2.8,2.7l0,0C1381.6,2576.6,1381.6,2576.6,1381.6,2576.6z M1378.9,2556.9
		c-0.1-1.6,1.2-2.9,2.7-2.9l0,0c1.6,0,2.9,1.2,2.9,2.7l0,0c0.1,1.6-1.2,2.9-2.7,2.9l0,0c0,0-0.1,0-0.1,0l0,0
		C1380.2,2559.7,1379,2558.5,1378.9,2556.9z M1377.7,2540.2c-0.2-1.6,0.9-3,2.5-3.1l0,0c1.6-0.2,2.9,0.9,3.1,2.5l0,0
		c0.2,1.5-0.9,2.9-2.5,3.1l0,0c-0.1,0-0.2,0-0.3,0l0,0C1379.1,2542.8,1377.9,2541.7,1377.7,2540.2z M1375.3,2523.7
		c-0.3-1.5,0.7-3,2.3-3.3l0,0c1.5-0.3,3,0.7,3.3,2.3l0,0c0.3,1.5-0.7,3-2.3,3.3l0,0c-0.2,0-0.3,0.1-0.5,0.1l0,0
		C1376.7,2526,1375.5,2525,1375.3,2523.7z M1371.6,2507.4L1371.6,2507.4c-0.4-1.5,0.5-3,2-3.5l0,0c1.5-0.4,3.1,0.5,3.5,2l0,0l0,0
		l0,0c0.4,1.5-0.5,3-2,3.5l0,0c-0.2,0.1-0.5,0.1-0.7,0.1l0,0C1373.1,2509.4,1371.9,2508.6,1371.6,2507.4z M1366.6,2491.4
		c-0.5-1.5,0.2-3.1,1.7-3.6l0,0c1.5-0.5,3.1,0.2,3.6,1.7l0,0l0,0l0,0c0.5,1.5-0.2,3.1-1.7,3.6l0,0c-0.3,0.1-0.6,0.2-1,0.2l0,0
		C1368.1,2493.3,1367,2492.6,1366.6,2491.4z M1360.3,2475.9c-0.6-1.4,0-3.1,1.4-3.7l0,0c1.4-0.7,3.1,0,3.7,1.4l0,0l0,0l0,0
		c0.6,1.4,0,3.1-1.4,3.7l0,0c-0.4,0.2-0.8,0.3-1.2,0.3l0,0C1361.8,2477.6,1360.7,2477,1360.3,2475.9z M475.6,2469.2
		c0-1.6,1.2-2.8,2.8-2.9l0,0l0,0l0,0c1.6,0,2.8,1.2,2.8,2.8l0,0c0,1.6-1.2,2.8-2.8,2.8l0,0c0,0,0,0,0,0l0,0
		C476.9,2472,475.6,2470.7,475.6,2469.2z M458.6,2469c0-1.6,1.3-2.8,2.9-2.8l0,0c1.6,0,2.8,1.3,2.8,2.9l0,0c0,1.6-1.3,2.8-2.9,2.8
		l0,0C459.8,2471.8,458.6,2470.5,458.6,2469z M492.5,2468.9c0-1.6,1.2-2.9,2.7-2.9l0,0l0,0l0,0c1.6-0.1,2.9,1.2,2.9,2.7l0,0
		c0.1,1.6-1.2,2.9-2.7,2.9l0,0c0,0-0.1,0-0.1,0l0,0C493.9,2471.6,492.6,2470.4,492.5,2468.9z M444.4,2471.1c-1.6-0.1-2.8-1.4-2.7-3
		l0,0c0.1-1.6,1.4-2.7,3-2.7l0,0c1.6,0.1,2.7,1.4,2.7,3l0,0c-0.1,1.5-1.3,2.7-2.8,2.7l0,0C444.5,2471.1,444.4,2471.1,444.4,2471.1z
		 M509.5,2468.1c-0.1-1.6,1.1-2.9,2.6-3l0,0c1.6-0.1,2.9,1.1,3,2.6l0,0c0.1,1.6-1.1,2.9-2.6,3l0,0c-0.1,0-0.1,0-0.2,0l0,0
		C510.8,2470.7,509.6,2469.6,509.5,2468.1z M427.4,2469.9L427.4,2469.9c-1.6-0.1-2.7-1.5-2.6-3.1l0,0c0.1-1.6,1.5-2.7,3.1-2.6l0,0
		c1.6,0.1,2.7,1.5,2.6,3.1l0,0c-0.1,1.5-1.4,2.6-2.8,2.6l0,0C427.5,2469.9,427.5,2469.9,427.4,2469.9z M526.4,2466.8
		c-0.1-1.6,1-2.9,2.6-3.1l0,0l0,0l0,0c1.6-0.1,2.9,1,3.1,2.6l0,0c0.1,1.6-1,2.9-2.6,3.1l0,0c-0.1,0-0.2,0-0.3,0l0,0
		C527.8,2469.4,526.5,2468.3,526.4,2466.8z M410.4,2468L410.4,2468c-1.6-0.2-2.6-1.6-2.4-3.2l0,0c0.2-1.6,1.6-2.6,3.2-2.4l0,0
		c0,0,0,0,0,0l0,0c1.5,0.2,2.6,1.6,2.4,3.2l0,0c-0.2,1.4-1.4,2.5-2.8,2.5l0,0C410.7,2468,410.5,2468,410.4,2468z M543.3,2465.1
		c-0.2-1.6,0.9-3,2.5-3.1l0,0c1.5-0.2,3,0.9,3.1,2.5l0,0c0.2,1.5-0.9,3-2.5,3.1l0,0c-0.1,0-0.2,0-0.3,0l0,0
		C544.7,2467.6,543.4,2466.5,543.3,2465.1z M393.5,2465.4L393.5,2465.4c-1.5-0.3-2.6-1.7-2.3-3.3l0,0c0.3-1.5,1.7-2.6,3.3-2.3l0,0
		c1.5,0.3,2.6,1.7,2.3,3.3l0,0c-0.2,1.4-1.4,2.4-2.8,2.4l0,0C393.9,2465.5,393.7,2465.5,393.5,2465.4z M560.1,2462.9
		c-0.2-1.5,0.8-3,2.4-3.2l0,0l0,0l0,0c1.5-0.2,3,0.8,3.2,2.4l0,0c0.2,1.5-0.8,3-2.4,3.2l0,0c-0.1,0-0.3,0-0.4,0l0,0
		C561.5,2465.4,560.3,2464.3,560.1,2462.9z M576.9,2460.4c-0.3-1.5,0.8-3,2.3-3.3l0,0c1.5-0.3,3,0.8,3.3,2.3l0,0
		c0.3,1.5-0.8,3-2.3,3.3l0,0c-0.2,0-0.3,0-0.5,0l0,0C578.3,2462.7,577.1,2461.7,576.9,2460.4z M1352.7,2461
		c-0.8-1.4-0.3-3.1,1.1-3.8l0,0c1.4-0.8,3.1-0.3,3.8,1.1l0,0c0.8,1.4,0.3,3.1-1.1,3.8l0,0c-0.4,0.2-0.9,0.4-1.4,0.4l0,0
		C1354.2,2462.5,1353.2,2462,1352.7,2461z M376.8,2462.2L376.8,2462.2c-1.5-0.3-2.5-1.8-2.2-3.4l0,0c0.3-1.5,1.8-2.5,3.3-2.2l0,0
		l0,0l0,0c1.5,0.3,2.5,1.8,2.2,3.3l0,0c-0.3,1.3-1.5,2.2-2.8,2.2l0,0C377.2,2462.3,377,2462.3,376.8,2462.2z M593.6,2457.4
		c-0.3-1.5,0.7-3,2.2-3.3l0,0c1.5-0.3,3,0.7,3.3,2.2l0,0c0.3,1.5-0.7,3-2.2,3.3l0,0c-0.2,0-0.4,0-0.5,0l0,0
		C595,2459.7,593.8,2458.8,593.6,2457.4z M360.2,2458.3c-1.5-0.4-2.4-1.9-2-3.4l0,0c0.4-1.5,1.9-2.4,3.4-2l0,0
		c1.5,0.4,2.4,1.9,2,3.4l0,0c-0.3,1.3-1.5,2.1-2.7,2.1l0,0C360.6,2458.4,360.4,2458.4,360.2,2458.3z M610.2,2454.1
		c-0.3-1.5,0.6-3,2.2-3.4l0,0c1.5-0.3,3,0.6,3.4,2.2l0,0c0.3,1.5-0.6,3-2.2,3.4h0c-0.2,0-0.4,0.1-0.6,0.1l0,0
		C611.6,2456.3,610.5,2455.4,610.2,2454.1z M343.7,2453.7c-1.5-0.4-2.3-2-1.9-3.5l0,0c0.5-1.5,2-2.3,3.5-1.9l0,0
		c1.5,0.5,2.3,2,1.9,3.5l0,0c-0.4,1.2-1.5,2-2.7,2l0,0C344.3,2453.8,344,2453.8,343.7,2453.7z M626.7,2450.4c-0.4-1.5,0.6-3,2.1-3.4
		l0,0l0,0l0,0c1.5-0.4,3,0.6,3.4,2.1l0,0c0.4,1.5-0.6,3-2.1,3.4l0,0c-0.2,0-0.4,0.1-0.7,0.1l0,0
		C628.2,2452.5,627,2451.7,626.7,2450.4z M327.5,2448.4c-1.5-0.5-2.2-2.1-1.7-3.6l0,0c0.5-1.5,2.1-2.2,3.6-1.7l0,0l0,0l0,0
		c1.5,0.5,2.2,2.1,1.7,3.6l0,0c-0.4,1.2-1.5,1.9-2.7,1.9l0,0C328.1,2448.5,327.8,2448.5,327.5,2448.4z M643.2,2446.3
		c-0.4-1.5,0.5-3.1,2-3.4l0,0c1.5-0.4,3,0.5,3.4,2l0,0c0.4,1.5-0.5,3.1-2,3.4l0,0c-0.2,0.1-0.5,0.1-0.7,0.1l0,0
		C644.7,2448.4,643.5,2447.6,643.2,2446.3z M1343.9,2446.8c-0.9-1.3-0.5-3.1,0.8-3.9l0,0c1.3-0.9,3-0.5,3.9,0.8l0,0l0,0l0,0
		c0.9,1.3,0.5,3.1-0.8,3.9l0,0c-0.5,0.3-1,0.5-1.6,0.5l0,0C1345.4,2448.1,1344.5,2447.6,1343.9,2446.8z M659.6,2441.9
		c-0.4-1.5,0.4-3.1,1.9-3.5l0,0c1.5-0.4,3.1,0.4,3.5,1.9l0,0c0.4,1.5-0.4,3.1-1.9,3.5l0,0c-0.3,0.1-0.5,0.1-0.8,0.1l0,0
		C661.1,2444,659.9,2443.1,659.6,2441.9z M311.5,2442.2c-1.4-0.6-2.1-2.3-1.5-3.7l0,0c0.6-1.4,2.3-2.1,3.7-1.5l0,0
		c1.4,0.6,2.1,2.2,1.5,3.7l0,0c-0.4,1.1-1.5,1.8-2.6,1.8l0,0C312.2,2442.5,311.9,2442.4,311.5,2442.2z M675.9,2437.2
		c-0.4-1.5,0.4-3.1,1.9-3.5l0,0c1.5-0.5,3.1,0.4,3.5,1.9l0,0c0.4,1.5-0.4,3.1-1.9,3.5v0c-0.3,0.1-0.5,0.1-0.8,0.1l0,0
		C677.4,2439.2,676.2,2438.4,675.9,2437.2z M295.9,2435.3c-1.4-0.7-2-2.4-1.3-3.8l0,0c0.7-1.4,2.4-2,3.8-1.3l0,0l0,0l0,0
		c1.4,0.7,2,2.4,1.3,3.8l0,0c-0.5,1-1.5,1.6-2.6,1.6l0,0C296.7,2435.6,296.3,2435.5,295.9,2435.3z M1334.1,2433.3
		c-1-1.2-0.8-3,0.5-4l0,0c1.2-1,3-0.8,4,0.5l0,0c1,1.2,0.7,3-0.5,4l0,0c-0.5,0.4-1.1,0.6-1.7,0.6l0,0
		C1335.5,2434.3,1334.6,2434,1334.1,2433.3z M692.1,2432.2c-0.5-1.5,0.3-3.1,1.8-3.6l0,0l0,0l0,0c1.5-0.5,3.1,0.3,3.6,1.8l0,0
		c0.5,1.5-0.3,3.1-1.8,3.6l0,0c-0.3,0.1-0.6,0.1-0.9,0.1l0,0C693.6,2434.1,692.5,2433.4,692.1,2432.2z M708.2,2426.8
		c-0.5-1.5,0.3-3.1,1.8-3.6l0,0c1.5-0.5,3.1,0.3,3.6,1.7l0,0c0.5,1.5-0.3,3.1-1.8,3.6l0,0c-0.3,0.1-0.6,0.1-0.9,0.1l0,0
		C709.7,2428.7,708.6,2428,708.2,2426.8z M280.7,2427.4c-1.4-0.8-1.8-2.5-1.1-3.8l0,0c0.8-1.4,2.5-1.8,3.8-1.1l0,0c0,0,0,0,0,0l0,0
		c1.4,0.8,1.8,2.5,1.1,3.8l0,0c-0.5,0.9-1.5,1.4-2.5,1.4l0,0C281.6,2427.8,281.1,2427.6,280.7,2427.4z M724.2,2421.2
		c-0.5-1.5,0.2-3.1,1.7-3.6l0,0c1.5-0.5,3.1,0.2,3.6,1.7l0,0c0.5,1.5-0.2,3.1-1.7,3.6l0,0c-0.3,0.1-0.6,0.2-1,0.2l0,0
		C725.7,2423.1,724.6,2422.3,724.2,2421.2z M1323.3,2420.5c-1-1.2-1-2.9,0.2-4l0,0c1.2-1,2.9-1,4,0.2l0,0c1,1.2,1,2.9-0.2,4l0,0
		c-0.5,0.5-1.2,0.7-1.9,0.7l0,0C1324.6,2421.4,1323.8,2421.1,1323.3,2420.5z M266,2418.5c-1.3-0.9-1.7-2.6-0.8-3.9l0,0
		c0.8-1.3,2.6-1.7,3.9-0.8l0,0c1.3,0.9,1.7,2.6,0.8,3.9l0,0c-0.5,0.8-1.4,1.3-2.4,1.3l0,0C267,2418.9,266.5,2418.8,266,2418.5z
		 M740.1,2415.3c-0.6-1.5,0.2-3.1,1.6-3.7l0,0l0,0l0,0c1.5-0.6,3.1,0.2,3.7,1.6l0,0c0.6,1.5-0.2,3.1-1.6,3.6l0,0
		c-0.3,0.1-0.7,0.2-1,0.2l0,0C741.6,2417.1,740.5,2416.4,740.1,2415.3z M755.9,2409.1c-0.6-1.4,0.1-3.1,1.6-3.7l0,0l0,0l0,0
		c1.4-0.6,3.1,0.1,3.7,1.6l0,0c0.6,1.4-0.1,3.1-1.6,3.7l0,0c-0.3,0.1-0.7,0.2-1,0.2l0,0C757.4,2410.9,756.3,2410.2,755.9,2409.1z
		 M1311.6,2408.5L1311.6,2408.5c-1.1-1.1-1.2-2.9-0.1-4l0,0c1.1-1.1,2.9-1.2,4-0.1l0,0c0,0,0,0,0,0l0,0c1.1,1.1,1.2,2.9,0.1,4l0,0
		c-0.6,0.6-1.3,0.9-2,0.9l0,0C1312.8,2409.3,1312.1,2409,1311.6,2408.5z M252,2408.6c-1.2-0.9-1.5-2.7-0.5-4l0,0
		c0.9-1.2,2.7-1.5,4-0.5l0,0c1.2,0.9,1.5,2.7,0.5,4l0,0c-0.6,0.7-1.4,1.1-2.3,1.1l0,0C253.1,2409.2,252.5,2409,252,2408.6z
		 M771.6,2402.8c-0.6-1.4,0.1-3.1,1.5-3.7l0,0l0,0l0,0c1.4-0.6,3.1,0.1,3.7,1.5l0,0c0.6,1.4-0.1,3.1-1.5,3.7l0,0
		c-0.4,0.1-0.7,0.2-1.1,0.2l0,0C773.1,2404.5,772,2403.9,771.6,2402.8z M238.7,2397.8c-1.2-1-1.3-2.8-0.3-4l0,0c1-1.2,2.8-1.3,4-0.3
		l0,0c1.2,1,1.3,2.8,0.3,4l0,0c-0.6,0.6-1.3,1-2.1,1l0,0C239.9,2398.5,239.3,2398.2,238.7,2397.8z M787.3,2396.3
		c-0.6-1.4,0.1-3.1,1.5-3.7l0,0c1.4-0.6,3.1,0.1,3.7,1.5l0,0c0.6,1.4-0.1,3.1-1.5,3.7l0,0c-0.3,0.1-0.7,0.2-1.1,0.2l0,0
		C788.8,2398.1,787.7,2397.4,787.3,2396.3z M1299.1,2397.2c-1.2-1-1.3-2.8-0.3-4l0,0c1-1.2,2.8-1.3,4-0.3l0,0c1.2,1,1.3,2.8,0.3,4
		l0,0c-0.6,0.7-1.4,1-2.2,1l0,0C1300.3,2397.9,1299.6,2397.7,1299.1,2397.2z M802.9,2389.8c-0.6-1.4,0.1-3.1,1.5-3.7l0,0
		c1.4-0.6,3.1,0.1,3.7,1.5l0,0c0.6,1.4-0.1,3.1-1.5,3.7l0,0c-0.4,0.1-0.7,0.2-1.1,0.2l0,0C804.4,2391.5,803.3,2390.8,802.9,2389.8z
		 M1286,2386.8c-1.3-0.9-1.5-2.7-0.6-4l0,0c0.9-1.2,2.7-1.5,4-0.6l0,0c1.2,0.9,1.5,2.7,0.6,4l0,0c-0.5,0.7-1.4,1.1-2.3,1.1l0,0
		C1287.1,2387.3,1286.5,2387.2,1286,2386.8z M226.3,2386c-1.1-1.1-1.1-2.9,0-4l0,0c1.1-1.1,2.9-1.1,4,0l0,0c1.1,1.1,1.1,2.9,0,4l0,0
		c-0.6,0.5-1.3,0.8-2,0.8l0,0C227.5,2386.8,226.8,2386.6,226.3,2386z M818.5,2383.2c-0.6-1.4,0.1-3.1,1.5-3.7l0,0
		c1.4-0.6,3.1,0.1,3.7,1.5l0,0c0.6,1.4-0.1,3.1-1.5,3.7l0,0c-0.4,0.2-0.7,0.2-1.1,0.2l0,0C820,2384.9,819,2384.3,818.5,2383.2z
		 M834.2,2376.6c-0.6-1.4,0.1-3.1,1.5-3.7l0,0c1.4-0.6,3.1,0.1,3.7,1.5l0,0c0.6,1.4-0.1,3.1-1.5,3.7l0,0c-0.3,0.1-0.7,0.2-1.1,0.2
		l0,0C835.7,2378.4,834.6,2377.7,834.2,2376.6z M1272.2,2377.1c-1.3-0.9-1.7-2.6-0.8-3.9l0,0c0.9-1.3,2.6-1.7,3.9-0.8l0,0l0,0l0,0
		c1.3,0.9,1.7,2.6,0.8,3.9l0,0c-0.5,0.8-1.4,1.3-2.4,1.3l0,0C1273.3,2377.6,1272.7,2377.4,1272.2,2377.1z M214.7,2373.4
		c-1-1.2-0.9-3,0.3-4l0,0c1.2-1,3-0.9,4,0.3l0,0c1,1.2,0.9,3-0.3,4l0,0c-0.5,0.4-1.2,0.7-1.8,0.7l0,0
		C216,2374.3,215.2,2374,214.7,2373.4z M849.8,2370.1c-0.6-1.4,0.1-3.1,1.5-3.7l0,0c1.4-0.6,3.1,0.1,3.7,1.5l0,0
		c0.6,1.4-0.1,3.1-1.5,3.7l0,0c-0.3,0.1-0.7,0.2-1.1,0.2l0,0C851.3,2371.9,850.3,2371.2,849.8,2370.1z M1258,2368.2
		c-1.3-0.8-1.8-2.5-1-3.9l0,0c0.8-1.3,2.5-1.8,3.9-1l0,0c0,0,0,0,0,0l0,0c1.3,0.8,1.8,2.5,1,3.9l0,0c-0.5,0.9-1.5,1.4-2.4,1.4l0,0
		C1258.9,2368.6,1258.4,2368.4,1258,2368.2z M865.5,2363.7c-0.6-1.4,0.1-3.1,1.6-3.7l0,0c1.4-0.6,3.1,0.1,3.7,1.6l0,0
		c0.6,1.5-0.1,3.1-1.6,3.7l0,0c-0.3,0.1-0.7,0.2-1,0.2l0,0C867,2365.5,866,2364.8,865.5,2363.7z M204,2359.9c-0.9-1.3-0.6-3,0.6-3.9
		l0,0c1.3-0.9,3-0.6,3.9,0.6l0,0c0.9,1.3,0.6,3-0.6,3.9l0,0c-0.5,0.4-1.1,0.5-1.7,0.5l0,0C205.5,2361,204.6,2360.6,204,2359.9z
		 M1243.3,2360c-1.4-0.7-1.9-2.4-1.2-3.8l0,0c0.7-1.4,2.4-1.9,3.8-1.2l0,0c1.4,0.7,1.9,2.4,1.2,3.8l0,0c-0.5,1-1.5,1.5-2.5,1.5l0,0
		C1244.2,2360.3,1243.7,2360.2,1243.3,2360z M881.3,2357.5c-0.6-1.5,0.2-3.1,1.6-3.6l0,0c1.5-0.6,3.1,0.2,3.7,1.6l0,0
		c0.6,1.5-0.2,3.1-1.6,3.6l0,0c-0.3,0.1-0.7,0.2-1,0.2l0,0C882.8,2359.3,881.7,2358.6,881.3,2357.5z M897.2,2351.5
		c-0.5-1.5,0.2-3.1,1.7-3.6l0,0c1.5-0.5,3.1,0.2,3.6,1.7l0,0c0.5,1.5-0.2,3.1-1.7,3.6l0,0c-0.3,0.1-0.6,0.2-1,0.2l0,0
		C898.7,2353.4,897.6,2352.6,897.2,2351.5z M1228.2,2352.6c-1.4-0.6-2-2.3-1.4-3.7l0,0c0.7-1.4,2.3-2,3.7-1.4l0,0
		c1.4,0.7,2,2.3,1.4,3.7l0,0c-0.5,1-1.5,1.6-2.6,1.6l0,0C1229,2352.8,1228.6,2352.7,1228.2,2352.6z M913.1,2345.8
		c-0.5-1.5,0.3-3.1,1.7-3.6l0,0c1.5-0.5,3.1,0.3,3.6,1.8l0,0c0.5,1.5-0.3,3.1-1.7,3.6l0,0c-0.3,0.1-0.6,0.2-0.9,0.2l0,0
		C914.6,2347.7,913.5,2346.9,913.1,2345.8z M194.5,2345.6c-0.8-1.3-0.4-3.1,0.9-3.9l0,0c1.3-0.8,3.1-0.4,3.9,0.9l0,0l0,0l0,0
		c0.8,1.3,0.4,3.1-0.9,3.9l0,0c-0.5,0.3-1,0.4-1.5,0.4l0,0C196,2346.9,195,2346.5,194.5,2345.6z M1212.8,2345.8
		c-1.4-0.6-2.1-2.2-1.5-3.7l0,0c0.6-1.4,2.2-2.1,3.7-1.5l0,0c1.4,0.6,2.1,2.2,1.5,3.7l0,0c-0.4,1.1-1.5,1.8-2.6,1.8l0,0
		C1213.5,2346.1,1213.1,2346,1212.8,2345.8z M929.2,2340.3c-0.5-1.5,0.3-3.1,1.8-3.5l0,0c1.5-0.5,3.1,0.3,3.6,1.8l0,0
		c0.5,1.5-0.3,3.1-1.8,3.6h0c-0.3,0.1-0.6,0.1-0.9,0.1l0,0C930.7,2342.3,929.6,2341.5,929.2,2340.3z M1197.1,2339.8
		c-1.5-0.5-2.2-2.1-1.7-3.6l0,0c0.5-1.5,2.1-2.2,3.6-1.7l0,0c1.5,0.5,2.2,2.1,1.7,3.6l0,0c-0.4,1.2-1.5,1.9-2.7,1.9l0,0
		C1197.7,2340,1197.4,2339.9,1197.1,2339.8z M945.4,2335.3c-0.4-1.5,0.4-3.1,1.9-3.5l0,0l0,0l0,0c1.5-0.4,3.1,0.4,3.5,1.9l0,0
		c0.4,1.5-0.4,3.1-1.9,3.5l0,0c-0.3,0.1-0.5,0.1-0.8,0.1l0,0C946.9,2337.3,945.7,2336.5,945.4,2335.3z M1181.1,2334.5L1181.1,2334.5
		c-1.5-0.5-2.3-2-1.9-3.5l0,0c0.5-1.5,2-2.3,3.5-1.9l0,0c1.5,0.5,2.3,2,1.9,3.5l0,0c-0.4,1.2-1.5,2-2.7,2l0,0
		C1181.7,2334.7,1181.4,2334.6,1181.1,2334.5z M961.7,2330.6c-0.4-1.5,0.5-3,2-3.4l0,0c1.5-0.4,3,0.5,3.4,2l0,0c0.4,1.5-0.5,3-2,3.4
		l0,0c-0.2,0.1-0.5,0.1-0.7,0.1l0,0C963.2,2332.7,962,2331.9,961.7,2330.6z M186.1,2330.6c-0.7-1.4-0.1-3.1,1.2-3.8l0,0
		c1.4-0.7,3.1-0.2,3.8,1.2l0,0c0.7,1.4,0.1,3.1-1.2,3.8l0,0c-0.4,0.2-0.8,0.3-1.3,0.3l0,0C187.6,2332.1,186.6,2331.6,186.1,2330.6z
		 M1164.9,2330c-1.5-0.4-2.4-1.9-2-3.4l0,0c0.4-1.5,1.9-2.4,3.4-2l0,0c1.5,0.4,2.4,1.9,2,3.4l0,0c-0.3,1.3-1.5,2.1-2.7,2.1l0,0
		C1165.4,2330.1,1165.2,2330,1164.9,2330z M978.1,2326.5c-0.3-1.5,0.6-3,2.1-3.4l0,0l0,0l0,0c1.5-0.3,3,0.6,3.4,2.1l0,0
		c0.3,1.5-0.6,3-2.1,3.4l0,0c-0.2,0.1-0.4,0.1-0.6,0.1l0,0C979.6,2328.7,978.4,2327.8,978.1,2326.5z M1148.5,2326.2
		c-1.5-0.3-2.5-1.8-2.2-3.3l0,0c0.3-1.5,1.8-2.5,3.3-2.2l0,0c0,0,0,0,0,0l0,0c1.5,0.3,2.5,1.8,2.2,3.3l0,0c-0.3,1.3-1.5,2.3-2.8,2.3
		l0,0C1148.9,2326.2,1148.7,2326.2,1148.5,2326.2z M994.7,2322.9c-0.3-1.5,0.7-3,2.3-3.3l0,0l0,0l0,0c1.5-0.3,3,0.7,3.3,2.3l0,0
		c0.3,1.5-0.7,3-2.3,3.3l0,0c-0.2,0-0.3,0.1-0.5,0.1l0,0C996.1,2325.2,995,2324.3,994.7,2322.9z M1132,2323.1
		c-1.5-0.2-2.6-1.7-2.3-3.2l0,0c0.2-1.5,1.7-2.6,3.2-2.3l0,0l0,0l0,0c1.5,0.2,2.6,1.7,2.3,3.2l0,0c-0.2,1.4-1.4,2.4-2.8,2.4l0,0
		C1132.3,2323.1,1132.1,2323.1,1132,2323.1z M1011.4,2320c-0.2-1.5,0.8-3,2.4-3.2l0,0c1.5-0.2,3,0.8,3.2,2.4l0,0
		c0.2,1.5-0.8,3-2.4,3.2l0,0c-0.1,0-0.3,0-0.4,0l0,0C1012.8,2322.4,1011.6,2321.4,1011.4,2320z M1115.3,2320.8
		c-1.6-0.2-2.7-1.6-2.5-3.1l0,0c0.2-1.6,1.6-2.7,3.1-2.5l0,0c0,0,0,0,0,0l0,0c1.6,0.2,2.7,1.6,2.5,3.1l0,0c-0.2,1.4-1.4,2.5-2.8,2.5
		l0,0C1115.5,2320.8,1115.4,2320.8,1115.3,2320.8z M1028.2,2317.8c-0.2-1.5,1-2.9,2.5-3.1l0,0l0,0l0,0c1.5-0.2,2.9,1,3.1,2.5l0,0
		c0.2,1.6-1,2.9-2.5,3.1l0,0c-0.1,0-0.2,0-0.3,0l0,0C1029.6,2320.4,1028.4,2319.3,1028.2,2317.8z M1098.6,2319.2
		c-1.6-0.1-2.7-1.5-2.6-3l0,0c0.1-1.6,1.5-2.7,3-2.6l0,0l0,0l0,0c1.6,0.1,2.7,1.5,2.6,3l0,0c-0.1,1.5-1.3,2.6-2.8,2.6l0,0
		C1098.7,2319.2,1098.6,2319.2,1098.6,2319.2z M1045.1,2316.3c-0.1-1.6,1.1-2.9,2.7-3l0,0l0,0l0,0c1.6-0.1,2.9,1.1,3,2.7l0,0
		c0.1,1.6-1.1,2.9-2.6,3l0,0c-0.1,0-0.1,0-0.2,0l0,0C1046.4,2319,1045.2,2317.8,1045.1,2316.3z M1081.8,2318.4L1081.8,2318.4
		c-1.6,0-2.8-1.3-2.8-2.9l0,0c0-1.6,1.3-2.8,2.9-2.8l0,0l0,0l0,0c1.6,0,2.8,1.3,2.8,2.9l0,0
		C1084.6,2317.2,1083.4,2318.4,1081.8,2318.4L1081.8,2318.4C1081.8,2318.4,1081.8,2318.4,1081.8,2318.4z M1062.1,2315.5
		c0-1.6,1.2-2.9,2.8-2.9l0,0c1.6,0,2.9,1.2,2.9,2.8l0,0c0,1.6-1.2,2.8-2.8,2.9l0,0c0,0,0,0-0.1,0l0,0
		C1063.3,2318.3,1062.1,2317.1,1062.1,2315.5z M179,2315c-0.6-1.4,0.1-3.1,1.5-3.7l0,0c1.4-0.6,3.1,0.1,3.7,1.5l0,0
		c0.6,1.4-0.1,3.1-1.5,3.7l0,0c-0.3,0.1-0.7,0.2-1.1,0.2l0,0C180.5,2316.7,179.4,2316.1,179,2315z M173.1,2298.8
		c-0.5-1.5,0.4-3.1,1.8-3.5l0,0c1.5-0.5,3.1,0.4,3.5,1.8l0,0c0.5,1.5-0.4,3.1-1.8,3.5l0,0c-0.3,0.1-0.6,0.1-0.8,0.1l0,0
		C174.6,2300.8,173.5,2300,173.1,2298.8z M168.6,2282.2c-0.3-1.5,0.6-3,2.1-3.4l0,0c1.5-0.3,3,0.6,3.4,2.1l0,0
		c0.3,1.5-0.6,3-2.1,3.4l0,0c-0.2,0.1-0.4,0.1-0.6,0.1l0,0C170.1,2284.4,168.9,2283.5,168.6,2282.2z M165.5,2265.3
		c-0.2-1.5,0.8-3,2.4-3.2l0,0c1.5-0.2,3,0.9,3.2,2.4l0,0c0.2,1.5-0.9,3-2.4,3.2l0,0c-0.1,0-0.3,0-0.4,0l0,0
		C166.9,2267.8,165.7,2266.7,165.5,2265.3z M163.8,2248.2c-0.1-1.6,1.1-2.9,2.7-3l0,0c1.6-0.1,2.9,1.1,3,2.7l0,0c0,0,0,0,0,0l0,0
		c0.1,1.6-1.1,2.9-2.7,3l0,0c-0.1,0-0.1,0-0.2,0l0,0C165.1,2250.9,163.9,2249.7,163.8,2248.2z M166.3,2233.9c-1.6,0-2.8-1.3-2.7-2.9
		l0,0c0-1.6,1.3-2.8,2.9-2.8l0,0c1.6,0,2.8,1.3,2.8,2.9l0,0l0,0l0,0C169.1,2232.7,167.9,2233.9,166.3,2233.9L166.3,2233.9
		C166.3,2233.9,166.3,2233.9,166.3,2233.9z M167.2,2217c-1.5-0.2-2.7-1.6-2.5-3.1l0,0c0.2-1.6,1.6-2.7,3.1-2.5l0,0
		c1.6,0.2,2.7,1.6,2.5,3.1l0,0c-0.2,1.4-1.4,2.5-2.8,2.5l0,0C167.4,2217,167.3,2217,167.2,2217z M169.6,2200.2
		c-1.5-0.3-2.5-1.8-2.2-3.3h0c0.3-1.5,1.8-2.5,3.3-2.2l0,0c1.5,0.3,2.5,1.8,2.2,3.3l0,0c-0.3,1.3-1.4,2.3-2.8,2.3l0,0
		C170,2200.3,169.8,2200.3,169.6,2200.2z M173.4,2183.7c-1.5-0.4-2.4-2-1.9-3.5l0,0c0.4-1.5,2-2.4,3.5-1.9l0,0
		c1.5,0.4,2.4,2,1.9,3.5l0,0c-0.4,1.2-1.5,2-2.7,2l0,0C173.9,2183.8,173.6,2183.8,173.4,2183.7z M178.5,2167.6
		c-1.5-0.6-2.2-2.2-1.6-3.6l0,0c0.6-1.5,2.2-2.2,3.6-1.6l0,0c1.5,0.5,2.2,2.2,1.6,3.6l0,0c-0.4,1.1-1.5,1.8-2.6,1.8l0,0
		C179.2,2167.7,178.9,2167.7,178.5,2167.6z M185,2151.9c-1.4-0.7-2-2.4-1.3-3.8l0,0c0.7-1.4,2.4-2,3.8-1.3l0,0
		c1.4,0.7,2,2.4,1.3,3.8l0,0c-0.5,1-1.5,1.6-2.6,1.6l0,0C185.8,2152.1,185.4,2152.1,185,2151.9z M192.7,2136.8
		c-1.4-0.8-1.8-2.5-1-3.9l0,0c0.8-1.4,2.5-1.8,3.9-1l0,0c1.3,0.8,1.8,2.5,1,3.9l0,0c-0.5,0.9-1.5,1.4-2.4,1.4l0,0
		C193.6,2137.2,193.1,2137,192.7,2136.8z M903.9,2125.6c0-1.6,1.2-2.8,2.8-2.8h0c1.6,0,2.8,1.2,2.8,2.8l0,0c0,1.6-1.2,2.8-2.8,2.9
		l0,0h0l0,0C905.2,2128.4,903.9,2127.1,903.9,2125.6z M889.6,2127.6c-1.6-0.1-2.7-1.5-2.6-3.1l0,0c0.1-1.6,1.5-2.7,3.1-2.6l0,0
		c1.6,0.1,2.7,1.5,2.6,3.1l0,0c-0.1,1.5-1.4,2.6-2.8,2.6l0,0C889.7,2127.7,889.7,2127.7,889.6,2127.6z M920.9,2124.8
		c-0.2-1.6,0.9-3,2.4-3.2l0,0c1.5-0.2,3,0.9,3.2,2.4l0,0c0.2,1.5-0.9,3-2.4,3.2l0,0c-0.1,0-0.2,0-0.4,0l0,0
		C922.3,2127.3,921,2126.3,920.9,2124.8z M872.5,2125.4c-1.5-0.3-2.6-1.7-2.3-3.2l0,0c0.3-1.5,1.7-2.6,3.3-2.3l0,0
		c1.5,0.3,2.6,1.7,2.3,3.2l0,0c-0.2,1.4-1.4,2.4-2.8,2.4l0,0C872.9,2125.5,872.7,2125.5,872.5,2125.4z M937.5,2121.8
		c-0.4-1.5,0.4-3.1,1.9-3.5l0,0c1.5-0.4,3.1,0.4,3.5,1.9l0,0c0.4,1.5-0.4,3.1-1.9,3.5l0,0c-0.3,0.1-0.5,0.1-0.8,0.1l0,0
		C939,2123.9,937.9,2123.1,937.5,2121.8z M201.6,2122.4c-1.3-0.9-1.6-2.7-0.7-3.9l0,0c0.9-1.3,2.7-1.6,3.9-0.7l0,0
		c1.3,0.9,1.6,2.7,0.7,3.9l0,0l0,0l0,0c-0.5,0.8-1.4,1.2-2.3,1.2l0,0C202.7,2122.9,202.1,2122.7,201.6,2122.4z M855.8,2122.1
		L855.8,2122.1L855.8,2122.1c-1.5-0.4-2.5-1.9-2.1-3.4l0,0c0.4-1.5,1.9-2.5,3.4-2.1l0,0c1.5,0.3,2.5,1.9,2.1,3.4l0,0
		c-0.3,1.3-1.5,2.2-2.8,2.2l0,0C856.2,2122.1,856,2122.1,855.8,2122.1z M839.2,2117.8C839.2,2117.8,839.2,2117.8,839.2,2117.8
		L839.2,2117.8c-1.5-0.4-2.4-2-2-3.5l0,0c0.4-1.5,2-2.4,3.5-2l0,0c1.5,0.4,2.4,2,1.9,3.5l0,0c-0.3,1.2-1.5,2.1-2.7,2.1l0,0
		C839.7,2117.9,839.4,2117.9,839.2,2117.8z M953.5,2116.2c-0.7-1.4-0.1-3.1,1.3-3.8l0,0c1.4-0.7,3.1-0.1,3.8,1.3l0,0
		c0.7,1.4,0.1,3.1-1.3,3.8l0,0c-0.4,0.2-0.8,0.3-1.3,0.3l0,0C955,2117.7,954,2117.2,953.5,2116.2z M822.9,2112.8
		c-1.5-0.5-2.3-2.1-1.8-3.6l0,0c0.5-1.5,2.1-2.3,3.6-1.8l0,0c1.5,0.5,2.3,2.1,1.8,3.6l0,0c-0.4,1.2-1.5,1.9-2.7,1.9l0,0
		C823.5,2112.9,823.2,2112.9,822.9,2112.8z M211.7,2108.8c-1.2-1-1.4-2.8-0.4-4h0c1-1.2,2.8-1.4,4-0.4l0,0c1.2,1,1.4,2.8,0.4,4l0,0
		l0,0l0,0c-0.6,0.7-1.4,1-2.2,1l0,0C212.9,2109.4,212.3,2109.2,211.7,2108.8z M968.1,2107.6c-1-1.2-0.8-3,0.5-4h0c1.2-1,3-0.8,4,0.5
		l0,0c1,1.2,0.8,3-0.5,4l0,0c0,0,0,0,0,0l0,0c-0.5,0.4-1.1,0.6-1.7,0.6l0,0C969.5,2108.7,968.6,2108.3,968.1,2107.6z M806.8,2107.3
		c-1.5-0.5-2.3-2.1-1.7-3.6l0,0c0.5-1.5,2.1-2.2,3.6-1.7l0,0c1.5,0.5,2.2,2.1,1.7,3.6l0,0c-0.4,1.2-1.5,1.9-2.7,1.9l0,0
		C807.4,2107.4,807.1,2107.4,806.8,2107.3z M790.8,2101.7c-1.5-0.5-2.3-2.1-1.7-3.6l0,0c0.5-1.5,2.1-2.3,3.6-1.7l0,0
		c1.5,0.5,2.3,2.1,1.7,3.6l0,0c-0.4,1.2-1.5,1.9-2.7,1.9l0,0C791.4,2101.8,791.1,2101.8,790.8,2101.7z M980.6,2096.2
		c-1.2-1-1.3-2.8-0.3-4l0,0c1-1.2,2.8-1.3,4-0.3l0,0c1.2,1,1.3,2.8,0.3,4l0,0c-0.6,0.7-1.4,1-2.2,1l0,0
		C981.8,2096.9,981.2,2096.7,980.6,2096.2z M223,2096.1c-1.1-1.1-1.1-2.9,0-4l0,0c1.1-1.1,2.9-1.1,4,0l0,0c1.1,1.1,1.1,2.9,0,4l0,0
		c-0.6,0.6-1.3,0.8-2,0.8l0,0C224.2,2096.9,223.5,2096.6,223,2096.1z M774.8,2096.1c-1.5-0.5-2.3-2.1-1.7-3.6l0,0
		c0.5-1.5,2.1-2.3,3.6-1.7l0,0c1.5,0.5,2.3,2.1,1.7,3.6l0,0c-0.4,1.2-1.5,1.9-2.7,1.9l0,0C775.4,2096.2,775.1,2096.2,774.8,2096.1z
		 M758.7,2090.5L758.7,2090.5L758.7,2090.5c-1.5-0.5-2.3-2.1-1.8-3.6l0,0c0.5-1.5,2.1-2.3,3.6-1.8l0,0c1.5,0.5,2.3,2.1,1.8,3.6l0,0
		c-0.4,1.2-1.5,1.9-2.7,1.9l0,0C759.4,2090.7,759.1,2090.6,758.7,2090.5z M235.2,2084.4c-1-1.2-0.9-3,0.3-4l0,0c1.2-1,3-0.9,4,0.3
		l0,0c1,1.2,0.9,3-0.3,4l0,0c-0.5,0.4-1.2,0.7-1.8,0.7l0,0C236.6,2085.4,235.8,2085,235.2,2084.4z M742.7,2085.1
		c-1.5-0.5-2.3-2.1-1.8-3.6l0,0c0.5-1.5,2.1-2.3,3.6-1.8l0,0c1.5,0.5,2.3,2.1,1.8,3.6l0,0c-0.4,1.2-1.5,1.9-2.7,1.9l0,0
		C743.3,2085.2,743,2085.2,742.7,2085.1z M990.8,2082.7c-1.3-0.8-1.8-2.5-1-3.9l0,0c0.8-1.3,2.5-1.8,3.9-1l0,0
		c1.3,0.8,1.8,2.5,1,3.9l0,0c-0.5,0.9-1.5,1.4-2.4,1.4l0,0C991.8,2083.1,991.3,2082.9,990.8,2082.7z M726.6,2079.7
		c-1.5-0.5-2.3-2.1-1.8-3.6l0,0c0.5-1.5,2.1-2.3,3.6-1.8l0,0c1.5,0.5,2.3,2.1,1.8,3.6l0,0c-0.4,1.2-1.5,1.9-2.7,1.9l0,0
		C727.2,2079.9,726.9,2079.8,726.6,2079.7z M248.5,2073.8c-0.9-1.3-0.6-3,0.7-3.9l0,0c1.3-0.9,3-0.6,3.9,0.7l0,0
		c0.9,1.3,0.6,3-0.7,3.9l0,0c-0.5,0.3-1.1,0.5-1.6,0.5l0,0C249.9,2075,249,2074.6,248.5,2073.8z M710.5,2074.5
		c-1.5-0.5-2.3-2.1-1.8-3.5l0,0c0.5-1.5,2.1-2.3,3.6-1.8l0,0c1.5,0.5,2.3,2.1,1.8,3.5l0,0c-0.4,1.2-1.5,2-2.7,2l0,0
		C711.1,2074.6,710.8,2074.6,710.5,2074.5z M694.4,2069.4C694.4,2069.4,694.4,2069.4,694.4,2069.4L694.4,2069.4
		c-1.5-0.5-2.3-2-1.9-3.5l0,0c0.5-1.5,2-2.3,3.5-1.9l0,0c1.5,0.5,2.3,2,1.9,3.5l0,0c-0.4,1.2-1.5,2-2.7,2l0,0
		C694.9,2069.5,694.7,2069.5,694.4,2069.4z M998.6,2067.7c-1.5-0.6-2.2-2.2-1.6-3.7l0,0c0.6-1.4,2.2-2.2,3.7-1.6l0,0
		c1.4,0.6,2.2,2.2,1.6,3.7l0,0c-0.4,1.1-1.5,1.8-2.6,1.8l0,0C999.3,2067.9,999,2067.8,998.6,2067.7z M262.6,2064.5
		c-0.8-1.4-0.3-3.1,1-3.9l0,0c1.3-0.8,3.1-0.3,3.9,1l0,0c0.8,1.4,0.3,3.1-1,3.9l0,0c0,0,0,0,0,0l0,0c-0.4,0.3-0.9,0.4-1.4,0.4l0,0
		C264.1,2065.9,263.2,2065.4,262.6,2064.5z M678.2,2064.5c-1.5-0.4-2.4-2-1.9-3.5l0,0c0.4-1.5,2-2.4,3.5-1.9l0,0
		c1.5,0.4,2.3,2,1.9,3.5l0,0c-0.4,1.2-1.5,2-2.7,2l0,0C678.7,2064.6,678.5,2064.6,678.2,2064.5z M661.9,2059.8
		C661.9,2059.8,661.9,2059.8,661.9,2059.8L661.9,2059.8c-1.5-0.4-2.4-2-2-3.5l0,0c0.4-1.5,2-2.4,3.5-2l0,0c1.5,0.4,2.4,2,2,3.5l0,0
		c-0.3,1.2-1.5,2.1-2.7,2.1l0,0C662.4,2059.9,662.2,2059.9,661.9,2059.8z M277.6,2056.4c-0.7-1.4-0.1-3.1,1.3-3.8l0,0
		c1.4-0.7,3.1-0.1,3.8,1.3l0,0c0.7,1.4,0.1,3.1-1.3,3.8l0,0c-0.4,0.2-0.8,0.3-1.2,0.3l0,0C279.1,2058,278.1,2057.4,277.6,2056.4z
		 M645.6,2055.4L645.6,2055.4L645.6,2055.4c-1.5-0.4-2.4-1.9-2-3.5l0,0c0.4-1.5,2-2.4,3.5-2l0,0c1.5,0.4,2.4,1.9,2,3.4l0,0
		c-0.3,1.3-1.5,2.1-2.7,2.1l0,0C646.1,2055.5,645.8,2055.5,645.6,2055.4z M1004.1,2051.6c-1.5-0.3-2.5-1.9-2.1-3.4l0,0
		c0.3-1.5,1.9-2.5,3.4-2.1l0,0c1.5,0.3,2.5,1.9,2.1,3.4l0,0c-0.3,1.3-1.5,2.2-2.8,2.2l0,0
		C1004.5,2051.7,1004.3,2051.7,1004.1,2051.6z M629.2,2051.2c-1.5-0.4-2.4-1.9-2.1-3.4l0,0c0.4-1.5,1.9-2.4,3.4-2.1l0,0
		c1.5,0.4,2.4,1.9,2.1,3.4l0,0c-0.3,1.3-1.5,2.2-2.7,2.2l0,0C629.7,2051.3,629.5,2051.3,629.2,2051.2z M293,2049.4
		c-0.6-1.4,0.1-3.1,1.6-3.7l0,0c1.4-0.6,3.1,0.1,3.7,1.6l0,0c0.6,1.5-0.1,3.1-1.6,3.7l0,0c-0.3,0.1-0.7,0.2-1.1,0.2l0,0
		C294.5,2051.2,293.5,2050.5,293,2049.4z M612.8,2047.3c-1.5-0.3-2.5-1.9-2.1-3.4l0,0c0.3-1.5,1.9-2.5,3.4-2.1l0,0
		c1.5,0.3,2.5,1.9,2.1,3.4l0,0c-0.3,1.3-1.5,2.2-2.8,2.2l0,0C613.2,2047.4,613,2047.4,612.8,2047.3z M308.9,2043.4
		c-0.5-1.5,0.3-3.1,1.8-3.6l0,0c1.5-0.5,3.1,0.3,3.6,1.8l0,0c0.5,1.5-0.3,3.1-1.8,3.6l0,0c-0.3,0.1-0.6,0.1-0.9,0.1l0,0
		C310.4,2045.3,309.2,2044.6,308.9,2043.4z M596.3,2043.8c-1.5-0.3-2.5-1.8-2.2-3.3l0,0c0.3-1.5,1.8-2.5,3.3-2.2l0,0
		c1.5,0.3,2.5,1.8,2.2,3.3l0,0c-0.3,1.3-1.5,2.3-2.8,2.3l0,0C596.6,2043.8,596.4,2043.8,596.3,2043.8z M579.7,2040.6
		c-1.5-0.3-2.6-1.8-2.3-3.3l0,0c0.3-1.5,1.8-2.6,3.3-2.3l0,0c1.5,0.3,2.6,1.8,2.3,3.3l0,0c-0.2,1.4-1.4,2.3-2.8,2.3l0,0
		C580,2040.6,579.8,2040.6,579.7,2040.6z M325,2038.3c-0.4-1.5,0.5-3.1,2-3.5l0,0c1.5-0.4,3.1,0.5,3.5,2l0,0c0.4,1.5-0.5,3.1-2,3.5
		l0,0l0,0l0,0c-0.2,0.1-0.5,0.1-0.7,0.1l0,0C326.5,2040.3,325.4,2039.5,325,2038.3z M563,2037.7c-1.5-0.2-2.6-1.7-2.4-3.2l0,0
		c0.2-1.5,1.7-2.6,3.2-2.3l0,0c1.5,0.2,2.6,1.7,2.3,3.2l0,0c-0.2,1.4-1.4,2.4-2.8,2.4l0,0C563.3,2037.7,563.2,2037.7,563,2037.7z
		 M341.4,2034.1c-0.3-1.5,0.6-3,2.2-3.4l0,0c1.5-0.3,3,0.6,3.4,2.2l0,0c0.3,1.5-0.6,3-2.2,3.4l0,0c-0.2,0-0.4,0.1-0.6,0.1l0,0
		C342.9,2036.3,341.7,2035.4,341.4,2034.1z M546.3,2035.3c-1.5-0.2-2.6-1.6-2.4-3.2l0,0c0.2-1.6,1.6-2.6,3.2-2.4l0,0
		c1.5,0.2,2.6,1.6,2.4,3.2l0,0c-0.2,1.4-1.4,2.5-2.8,2.5l0,0C546.6,2035.3,546.4,2035.3,546.3,2035.3z M1007,2034.9
		c-1.6-0.1-2.7-1.5-2.6-3l0,0c0.1-1.6,1.5-2.7,3-2.6l0,0c1.6,0.1,2.7,1.5,2.6,3l0,0c-0.1,1.5-1.4,2.6-2.8,2.6l0,0
		C1007.2,2034.9,1007.1,2034.9,1007,2034.9z M529.5,2033.2c-1.5-0.2-2.7-1.6-2.5-3.1l0,0c0.2-1.6,1.6-2.7,3.1-2.5l0,0
		c1.6,0.2,2.7,1.6,2.5,3.1l0,0c-0.2,1.4-1.4,2.5-2.8,2.5l0,0C529.8,2033.2,529.6,2033.2,529.5,2033.2z M358.1,2030.7
		c-0.3-1.5,0.8-3,2.3-3.3l0,0c1.5-0.3,3,0.8,3.3,2.3l0,0c0.3,1.5-0.8,3-2.3,3.3l0,0c-0.2,0-0.3,0-0.5,0l0,0
		C359.5,2033,358.3,2032.1,358.1,2030.7z M512.7,2031.4c-1.6-0.2-2.7-1.5-2.5-3.1l0,0c0.2-1.6,1.5-2.7,3.1-2.5l0,0
		c1.6,0.2,2.7,1.5,2.5,3.1l0,0c-0.1,1.5-1.4,2.5-2.8,2.5l0,0C512.9,2031.4,512.8,2031.4,512.7,2031.4z M374.8,2028.1
		c-0.2-1.5,0.9-3,2.5-3.1l0,0c1.5-0.2,3,0.9,3.1,2.5l0,0c0.2,1.6-0.9,3-2.5,3.2l0,0c-0.1,0-0.2,0-0.3,0l0,0
		C376.2,2030.6,375,2029.5,374.8,2028.1z M495.9,2029.8c-1.6-0.1-2.7-1.5-2.6-3l0,0c0.1-1.6,1.5-2.7,3-2.6l0,0
		c1.6,0.1,2.7,1.5,2.6,3l0,0c-0.1,1.5-1.4,2.6-2.8,2.6l0,0C496,2029.8,496,2029.8,495.9,2029.8z M391.7,2026.2c-0.1-1.6,1-2.9,2.6-3
		l0,0c1.6-0.1,2.9,1,3,2.6l0,0c0.1,1.6-1,2.9-2.6,3l0,0c-0.1,0-0.2,0-0.2,0l0,0C393,2028.8,391.8,2027.7,391.7,2026.2z M479,2028.6
		c-1.6-0.1-2.7-1.4-2.6-3l0,0c0.1-1.6,1.4-2.7,3-2.6l0,0c1.6,0.1,2.7,1.4,2.6,3l0,0c-0.1,1.5-1.3,2.6-2.8,2.6l0,0
		C479.2,2028.6,479.1,2028.6,479,2028.6z M408.6,2025c-0.1-1.6,1.1-2.9,2.7-3l0,0c1.6-0.1,2.9,1.1,3,2.7l0,0c0.1,1.6-1.1,2.9-2.7,3
		l0,0c0,0-0.1,0-0.1,0l0,0C409.9,2027.7,408.7,2026.5,408.6,2025z M462.2,2027.7c-1.6-0.1-2.8-1.4-2.7-2.9l0,0
		c0.1-1.6,1.4-2.8,2.9-2.7l0,0c1.6,0.1,2.8,1.4,2.7,2.9l0,0c-0.1,1.5-1.3,2.7-2.8,2.7l0,0C462.2,2027.7,462.2,2027.7,462.2,2027.7z
		 M445.3,2027.2c-1.6,0-2.8-1.3-2.8-2.9l0,0c0-1.6,1.3-2.8,2.9-2.8l0,0c1.6,0,2.8,1.3,2.8,2.9l0,0
		C448.1,2026,446.9,2027.2,445.3,2027.2L445.3,2027.2C445.3,2027.2,445.3,2027.2,445.3,2027.2z M425.5,2024.4c0-1.6,1.2-2.8,2.8-2.9
		l0,0c1.6,0,2.9,1.2,2.9,2.8l0,0c0,1.6-1.2,2.9-2.8,2.9l0,0c0,0,0,0-0.1,0l0,0C426.8,2027.2,425.6,2026,425.5,2024.4z
		 M1004.7,2015.3c-0.1-1.6,1.1-2.9,2.7-3l0,0c1.6-0.1,2.9,1.1,3,2.7l0,0c0.1,1.6-1.1,2.9-2.7,3l0,0c0,0-0.1,0-0.1,0l0,0
		C1006,2018,1004.7,2016.8,1004.7,2015.3z M1003,1998.7c-0.2-1.5,0.8-3,2.4-3.2l0,0c1.5-0.2,3,0.8,3.2,2.4l0,0
		c0.2,1.5-0.8,3-2.4,3.2l0,0c-0.1,0-0.3,0-0.4,0l0,0C1004.4,2001.1,1003.2,2000.1,1003,1998.7z M999.8,1982.3
		c-0.4-1.5,0.6-3,2.1-3.4l0,0c1.5-0.4,3,0.6,3.4,2.1l0,0c0.4,1.5-0.6,3-2.1,3.4l0,0c-0.2,0-0.4,0.1-0.6,0.1l0,0
		C1001.2,1984.5,1000.1,1983.6,999.8,1982.3z M995.4,1966.1c-0.4-1.5,0.4-3.1,1.9-3.5l0,0c1.5-0.4,3.1,0.4,3.5,1.9l0,0
		c0.4,1.5-0.4,3.1-1.9,3.5l0,0c-0.3,0.1-0.5,0.1-0.8,0.1l0,0C996.9,1968.1,995.8,1967.3,995.4,1966.1z M990.2,1950.1
		c-0.5-1.5,0.3-3.1,1.7-3.6l0,0c1.5-0.5,3.1,0.3,3.6,1.7l0,0l0,0l0,0c0.5,1.5-0.3,3.1-1.8,3.6l0,0c-0.3,0.1-0.6,0.2-0.9,0.2l0,0
		C991.7,1952,990.6,1951.2,990.2,1950.1z M984.5,1934.2c-0.5-1.5,0.2-3.1,1.7-3.6l0,0c1.5-0.5,3.1,0.2,3.6,1.7l0,0c0,0,0,0,0,0l0,0
		c0.5,1.5-0.2,3.1-1.7,3.6l0,0c-0.3,0.1-0.7,0.2-1,0.2l0,0C986,1936,984.9,1935.3,984.5,1934.2z M978.4,1918.4
		c-0.6-1.5,0.2-3.1,1.6-3.6l0,0c1.4-0.6,3.1,0.2,3.6,1.6l0,0c0.6,1.5-0.2,3.1-1.6,3.7l0,0c-0.3,0.1-0.7,0.2-1,0.2l0,0
		C979.9,1920.2,978.9,1919.5,978.4,1918.4z M972.3,1902.5c-0.6-1.5,0.2-3.1,1.6-3.6l0,0c1.5-0.6,3.1,0.2,3.6,1.6l0,0
		c0.6,1.5-0.2,3.1-1.6,3.6l0,0c-0.3,0.1-0.7,0.2-1,0.2l0,0C973.8,1904.3,972.8,1903.6,972.3,1902.5z M966.4,1886.6
		c-0.5-1.5,0.2-3.1,1.7-3.6l0,0c1.5-0.5,3.1,0.2,3.6,1.7l0,0c0.5,1.5-0.2,3.1-1.7,3.6l0,0c-0.3,0.1-0.6,0.2-0.9,0.2l0,0
		C967.9,1888.4,966.8,1887.7,966.4,1886.6z M961,1870.4c-0.5-1.5,0.4-3.1,1.8-3.5l0,0c1.5-0.5,3.1,0.4,3.5,1.8l0,0
		c0.5,1.5-0.3,3.1-1.8,3.5l0,0c-0.3,0.1-0.6,0.1-0.9,0.1l0,0C962.4,1872.4,961.3,1871.6,961,1870.4z M956.2,1853.9
		c-0.4-1.5,0.5-3,2.1-3.4l0,0c1.5-0.4,3.1,0.5,3.4,2.1l0,0c0.4,1.5-0.5,3-2.1,3.4l0,0c-0.2,0.1-0.5,0.1-0.7,0.1l0,0
		C957.7,1856.1,956.6,1855.2,956.2,1853.9z M952.7,1837.1c-0.3-1.5,0.8-3,2.3-3.2l0,0c1.5-0.3,3,0.8,3.2,2.3l0,0
		c0.3,1.5-0.8,3-2.3,3.2l0,0c-0.2,0-0.3,0-0.5,0l0,0C954.2,1839.5,953,1838.5,952.7,1837.1z M950.4,1820.1c-0.2-1.6,1-2.9,2.5-3.1
		l0,0c1.6-0.2,2.9,1,3.1,2.5l0,0c0,0,0,0,0,0l0,0c0.2,1.6-1,2.9-2.5,3.1l0,0c-0.1,0-0.2,0-0.3,0l0,0
		C951.8,1822.7,950.6,1821.6,950.4,1820.1z M949.2,1803.1L949.2,1803.1c-0.1-1.6,1.1-2.9,2.7-2.9l0,0c1.6-0.1,2.9,1.1,2.9,2.7l0,0
		c0.1,1.6-1.1,2.9-2.7,2.9l0,0c0,0-0.1,0-0.1,0l0,0C950.5,1805.8,949.2,1804.6,949.2,1803.1z M951.8,1788.8c-1.6,0-2.8-1.3-2.8-2.9
		l0,0c0-1.6,1.3-2.8,2.9-2.8l0,0c1.6,0,2.8,1.3,2.8,2.9l0,0C954.6,1787.6,953.4,1788.8,951.8,1788.8L951.8,1788.8
		C951.8,1788.8,951.8,1788.8,951.8,1788.8z M952.5,1771.9c-1.5-0.1-2.7-1.5-2.6-3.1l0,0c0.1-1.6,1.5-2.7,3.1-2.6l0,0
		c1.6,0.1,2.7,1.5,2.6,3.1l0,0c-0.1,1.5-1.4,2.6-2.8,2.6l0,0C952.7,1771.9,952.6,1771.9,952.5,1771.9z M954.4,1755
		c-1.5-0.2-2.6-1.7-2.3-3.2l0,0c0.2-1.5,1.7-2.6,3.2-2.3l0,0c1.5,0.2,2.6,1.7,2.3,3.2l0,0l0,0l0,0c-0.2,1.4-1.4,2.4-2.8,2.4l0,0
		C954.7,1755.1,954.6,1755.1,954.4,1755z M957.5,1738.4c-1.5-0.4-2.5-1.9-2.1-3.4l0,0c0.4-1.5,1.9-2.5,3.4-2.1l0,0
		c1.5,0.4,2.5,1.9,2.1,3.4l0,0c0,0,0,0,0,0l0,0c-0.3,1.3-1.5,2.2-2.8,2.2l0,0C957.9,1738.4,957.7,1738.4,957.5,1738.4z M961.9,1722
		c-1.5-0.5-2.3-2.1-1.8-3.6l0,0c0.5-1.5,2.1-2.3,3.6-1.8l0,0c1.5,0.5,2.3,2.1,1.8,3.6l0,0c-0.4,1.2-1.5,2-2.7,2l0,0
		C962.4,1722.1,962.1,1722.1,961.9,1722z M967.5,1706c-1.4-0.6-2.1-2.3-1.5-3.7l0,0c0.6-1.4,2.3-2.1,3.7-1.5l0,0
		c1.4,0.6,2.1,2.3,1.5,3.7l0,0c-0.5,1.1-1.5,1.7-2.6,1.7l0,0C968.2,1706.2,967.9,1706.1,967.5,1706z M974.5,1690.6
		c-1.4-0.7-1.9-2.4-1.2-3.8l0,0c0.7-1.4,2.4-1.9,3.8-1.2l0,0c1.4,0.7,1.9,2.4,1.2,3.8l0,0c-0.5,1-1.5,1.5-2.5,1.5l0,0
		C975.4,1690.9,974.9,1690.8,974.5,1690.6z M982.9,1675.8c-1.3-0.8-1.7-2.6-0.8-3.9l0,0c0.8-1.3,2.6-1.7,3.9-0.8l0,0
		c1.3,0.8,1.7,2.6,0.8,3.9l0,0c-0.5,0.8-1.4,1.3-2.4,1.3l0,0C983.9,1676.2,983.3,1676.1,982.9,1675.8z M992.5,1661.9
		c-1.2-1-1.4-2.8-0.5-4l0,0c1-1.2,2.8-1.4,4-0.4l0,0c1.2,1,1.4,2.7,0.4,4l0,0c-0.6,0.7-1.4,1.1-2.2,1.1l0,0
		C993.7,1662.5,993.1,1662.3,992.5,1661.9z M1003.5,1648.9c-1.1-1.1-1.2-2.9-0.1-4l0,0c1.1-1.1,2.9-1.1,4-0.1l0,0
		c1.1,1.1,1.2,2.9,0.1,4l0,0c-0.6,0.6-1.3,0.9-2,0.9l0,0C1004.8,1649.7,1004,1649.5,1003.5,1648.9z M1015.7,1637.2
		c-1-1.2-0.9-3,0.3-4l0,0c1.2-1,3-0.9,4,0.3l0,0c1,1.2,0.9,3-0.3,4l0,0c-0.5,0.4-1.2,0.7-1.8,0.7l0,0
		C1017,1638.2,1016.2,1637.8,1015.7,1637.2z M1029,1626.7c-0.9-1.3-0.6-3,0.7-3.9l0,0c1.3-0.9,3-0.5,3.9,0.7l0,0
		c0.9,1.3,0.6,3-0.7,3.9l0,0c-0.5,0.3-1,0.5-1.6,0.5l0,0C1030.4,1627.9,1029.5,1627.5,1029,1626.7z M1043.3,1617.5
		c-0.8-1.4-0.3-3.1,1.1-3.8l0,0c1.4-0.7,3.1-0.3,3.8,1.1l0,0c0.8,1.4,0.3,3.1-1.1,3.8l0,0c-0.4,0.2-0.9,0.3-1.4,0.3l0,0
		C1044.7,1619,1043.8,1618.5,1043.3,1617.5z M1058.3,1609.8c-0.6-1.4,0-3.1,1.5-3.7l0,0c1.4-0.6,3.1,0,3.7,1.5l0,0
		c0.6,1.4,0,3.1-1.5,3.7l0,0c-0.4,0.2-0.7,0.2-1.1,0.2l0,0C1059.8,1611.5,1058.8,1610.9,1058.3,1609.8z M1074.1,1603.5
		c-0.5-1.5,0.3-3.1,1.8-3.6l0,0c1.5-0.5,3.1,0.3,3.6,1.7l0,0c0.5,1.5-0.3,3.1-1.8,3.6l0,0c-0.3,0.1-0.6,0.1-0.9,0.1l0,0
		C1075.5,1605.4,1074.5,1604.6,1074.1,1603.5z M1090.2,1598.3c-0.4-1.5,0.5-3.1,2-3.5l0,0c1.5-0.4,3.1,0.5,3.4,2l0,0
		c0.4,1.5-0.5,3-2,3.4l0,0l0,0l0,0c-0.2,0.1-0.5,0.1-0.7,0.1l0,0C1091.7,1600.4,1090.6,1599.6,1090.2,1598.3z M1106.7,1594.4
		c-0.3-1.5,0.7-3,2.2-3.3l0,0c1.5-0.3,3,0.7,3.3,2.2l0,0c0.3,1.5-0.7,3-2.2,3.3l0,0c-0.2,0-0.4,0.1-0.5,0.1l0,0
		C1108.2,1596.6,1107,1595.7,1106.7,1594.4z M1123.4,1591.4c-0.2-1.5,0.9-3,2.4-3.2l0,0c1.5-0.2,3,0.9,3.2,2.4l0,0
		c0.2,1.5-0.9,3-2.4,3.2l0,0c-0.1,0-0.3,0-0.4,0l0,0C1124.8,1593.8,1123.6,1592.8,1123.4,1591.4z M1140.3,1589.3
		c-0.1-1.6,1-2.9,2.6-3.1l0,0c1.6-0.1,2.9,1,3.1,2.6l0,0c0.1,1.6-1,2.9-2.6,3.1l0,0c-0.1,0-0.2,0-0.3,0l0,0
		C1141.6,1591.9,1140.4,1590.8,1140.3,1589.3z M1157.2,1588c-0.1-1.6,1.1-2.9,2.7-3l0,0c1.6-0.1,2.9,1.1,3,2.7l0,0
		c0.1,1.6-1.1,2.9-2.7,3l0,0c-0.1,0-0.1,0-0.2,0l0,0C1158.5,1590.7,1157.3,1589.5,1157.2,1588z M1174.1,1587.3
		c-0.1-1.6,1.2-2.9,2.7-2.9l0,0c1.6,0,2.9,1.2,2.9,2.7l0,0c0.1,1.6-1.2,2.9-2.7,2.9l0,0c0,0-0.1,0-0.1,0l0,0
		C1175.4,1590,1174.2,1588.8,1174.1,1587.3z M1191.1,1586.5c-0.1-1.6,1.1-2.9,2.6-3l0,0c1.6-0.1,2.9,1,3,2.6l0,0
		c0.1,1.6-1.1,2.9-2.6,3l0,0c-0.1,0-0.1,0-0.2,0l0,0C1192.4,1589.1,1191.2,1587.9,1191.1,1586.5z M1208,1585c-0.2-1.5,0.9-3,2.5-3.1
		l0,0c1.6-0.2,3,0.9,3.1,2.5l0,0c0.2,1.5-0.9,3-2.5,3.1l0,0c-0.1,0-0.2,0-0.3,0l0,0C1209.4,1587.4,1208.2,1586.4,1208,1585z
		 M1224.8,1582.6c-0.3-1.5,0.7-3,2.3-3.3h0c1.5-0.3,3,0.7,3.3,2.3l0,0c0.3,1.5-0.7,3-2.3,3.3l0,0c-0.2,0-0.3,0-0.5,0l0,0
		C1226.2,1584.9,1225,1583.9,1224.8,1582.6z M1241.4,1579.1c-0.4-1.5,0.5-3,2-3.5l0,0c1.5-0.4,3.1,0.5,3.5,2l0,0
		c0.4,1.5-0.5,3.1-2,3.5l0,0c-0.2,0.1-0.5,0.1-0.7,0.1l0,0C1242.9,1581.1,1241.7,1580.3,1241.4,1579.1z M1257.6,1574.1
		c-0.6-1.5,0.1-3.1,1.6-3.7l0,0c1.5-0.6,3.1,0.2,3.7,1.6l0,0c0.6,1.5-0.1,3.1-1.6,3.7l0,0c-0.3,0.1-0.7,0.2-1,0.2l0,0
		C1259.1,1575.9,1258,1575.2,1257.6,1574.1z M1273.1,1567.3c-0.8-1.4-0.3-3.1,1-3.9l0,0c1.4-0.8,3.1-0.3,3.9,1.1l0,0
		c0.8,1.4,0.3,3.1-1.1,3.8l0,0c-0.4,0.3-0.9,0.4-1.4,0.4l0,0C1274.6,1568.7,1273.6,1568.2,1273.1,1567.3z M1287.3,1558
		c-1-1.2-0.9-3,0.2-4l0,0c1.2-1,3-0.9,4,0.3l0,0c1,1.2,0.9,3-0.2,4l0,0c-0.5,0.5-1.2,0.7-1.9,0.7l0,0
		C1288.6,1558.9,1287.8,1558.6,1287.3,1558z M1299,1545.8c-1.3-0.9-1.7-2.6-0.8-3.9l0,0c0.9-1.3,2.6-1.7,3.9-0.8l0,0
		c1.3,0.9,1.7,2.6,0.8,3.9l0,0c-0.5,0.8-1.4,1.3-2.4,1.3l0,0C1300,1546.3,1299.5,1546.1,1299,1545.8z M1306.9,1530.9
		c-1.5-0.5-2.3-2.1-1.9-3.5l0,0c0.5-1.5,2.1-2.3,3.5-1.9l0,0c1.5,0.5,2.3,2.1,1.9,3.5l0,0c-0.4,1.2-1.5,2-2.7,2l0,0
		C1307.5,1531,1307.2,1531,1306.9,1530.9z M1310.5,1514.4c-1.6-0.1-2.8-1.4-2.7-3l0,0c0.1-1.6,1.4-2.8,3-2.7l0,0
		c1.6,0.1,2.8,1.4,2.7,3l0,0c-0.1,1.5-1.3,2.7-2.8,2.7l0,0C1310.6,1514.4,1310.6,1514.4,1310.5,1514.4z M1307.1,1495.1
		c-0.2-1.5,0.9-3,2.4-3.2l0,0c1.5-0.2,3,0.9,3.2,2.4l0,0l0,0l0,0c0.2,1.5-0.9,3-2.4,3.2l0,0c-0.1,0-0.3,0-0.4,0l0,0
		C1308.5,1497.5,1307.3,1496.5,1307.1,1495.1z M1303.5,1479c-0.5-1.5,0.3-3.1,1.8-3.5l0,0c1.5-0.5,3.1,0.3,3.5,1.8l0,0
		c0.5,1.5-0.3,3.1-1.8,3.5l0,0c-0.3,0.1-0.6,0.1-0.9,0.1l0,0C1305,1481,1303.9,1480.2,1303.5,1479z M1297.1,1464
		c-0.7-1.4-0.2-3.1,1.1-3.8l0,0c1.4-0.7,3.1-0.2,3.8,1.1l0,0c0.7,1.4,0.2,3.1-1.1,3.8l0,0c-0.4,0.2-0.9,0.3-1.3,0.3l0,0
		C1298.6,1465.4,1297.6,1464.9,1297.1,1464z M1288,1450.3c-1-1.2-0.8-3,0.4-4l0,0c1.2-1,3-0.8,4,0.4l0,0c1,1.2,0.8,3-0.4,4l0,0
		c-0.5,0.4-1.1,0.6-1.8,0.6l0,0C1289.4,1451.3,1288.6,1451,1288,1450.3z M1276.8,1438.3c-1.2-1-1.2-2.8-0.2-4l0,0
		c1-1.2,2.8-1.2,4-0.2l0,0c1.2,1,1.2,2.8,0.2,4l0,0c-0.6,0.6-1.3,0.9-2.1,0.9l0,0C1278,1439,1277.3,1438.8,1276.8,1438.3z
		 M850.5,1430.7c-1.6,0-2.8-1.3-2.8-2.9l0,0c0-1.6,1.3-2.8,2.9-2.8l0,0c1.6,0,2.8,1.3,2.8,2.9l0,0
		C853.4,1429.5,852.1,1430.7,850.5,1430.7L850.5,1430.7C850.6,1430.7,850.5,1430.7,850.5,1430.7z M864.7,1427.9
		c0-1.6,1.2-2.9,2.8-2.9l0,0c1.6,0,2.9,1.2,2.9,2.8l0,0c0,1.6-1.2,2.9-2.8,2.9l0,0c0,0,0,0-0.1,0l0,0
		C866,1430.6,864.8,1429.4,864.7,1427.9z M881.7,1427.2c-0.1-1.6,1.1-2.9,2.6-3l0,0c1.6-0.1,2.9,1.1,3,2.6l0,0
		c0.1,1.6-1.1,2.9-2.6,3l0,0c-0.1,0-0.1,0-0.2,0l0,0C883,1429.8,881.8,1428.7,881.7,1427.2z M833.4,1429.8c-1.6-0.1-2.7-1.5-2.6-3
		l0,0c0.1-1.6,1.5-2.7,3-2.6l0,0c1.6,0.1,2.7,1.5,2.6,3l0,0c-0.1,1.5-1.4,2.6-2.8,2.6l0,0C833.6,1429.8,833.5,1429.8,833.4,1429.8z
		 M1263.7,1428.1L1263.7,1428.1c-1.3-0.9-1.6-2.6-0.7-3.9l0,0c0.9-1.3,2.6-1.6,3.9-0.7l0,0c1.3,0.9,1.6,2.6,0.7,3.9l0,0
		c-0.5,0.8-1.4,1.2-2.3,1.2l0,0C1264.8,1428.6,1264.2,1428.4,1263.7,1428.1z M898.6,1425.8c-0.2-1.6,1-2.9,2.5-3.1l0,0
		c1.6-0.2,2.9,1,3.1,2.5l0,0c0.2,1.6-1,2.9-2.5,3.1l0,0c-0.1,0-0.2,0-0.3,0l0,0C900,1428.3,898.7,1427.3,898.6,1425.8z
		 M816.4,1427.9c-1.5-0.2-2.6-1.7-2.4-3.2l0,0c0.2-1.5,1.7-2.6,3.2-2.4l0,0c1.5,0.2,2.6,1.7,2.4,3.2l0,0c-0.2,1.4-1.4,2.4-2.8,2.4
		l0,0C816.7,1427.9,816.6,1427.9,816.4,1427.9z M915.4,1423.9c-0.2-1.6,0.9-3,2.4-3.2l0,0l0,0l0,0c1.5-0.2,3,0.9,3.2,2.4l0,0
		c0.2,1.5-0.9,3-2.4,3.2l0,0c-0.1,0-0.3,0-0.4,0l0,0C916.8,1426.3,915.6,1425.3,915.4,1423.9z M799.6,1424.9
		c-1.5-0.3-2.5-1.8-2.2-3.3l0,0c0.3-1.5,1.8-2.5,3.3-2.2l0,0c1.5,0.3,2.5,1.8,2.2,3.3l0,0c-0.3,1.3-1.5,2.3-2.8,2.3l0,0
		C799.9,1425,799.8,1424.9,799.6,1424.9z M932.2,1421.5c-0.2-1.5,0.8-3,2.3-3.2l0,0c1.5-0.2,3,0.8,3.2,2.3l0,0
		c0.2,1.5-0.8,3-2.3,3.2h0c-0.2,0-0.3,0-0.5,0l0,0C933.6,1423.8,932.4,1422.9,932.2,1421.5z M782.9,1420.9c-1.5-0.4-2.4-2-2-3.5l0,0
		c0.4-1.5,2-2.4,3.5-2l0,0c1.5,0.4,2.4,2,2,3.5l0,0c-0.3,1.3-1.5,2.1-2.7,2.1l0,0C783.4,1421,783.1,1421,782.9,1420.9z
		 M948.9,1418.7c-0.3-1.5,0.7-3,2.3-3.3l0,0c0,0,0,0,0,0l0,0c1.5-0.3,3,0.7,3.3,2.3l0,0c0.3,1.5-0.7,3-2.3,3.3l0,0
		c-0.2,0-0.3,0-0.5,0l0,0C950.4,1421,949.2,1420,948.9,1418.7z M1249.5,1419.5c-1.4-0.7-1.9-2.4-1.2-3.8l0,0
		c0.7-1.4,2.4-1.9,3.8-1.2l0,0c1.4,0.7,1.9,2.4,1.2,3.8l0,0c-0.5,1-1.5,1.5-2.5,1.5l0,0C1250.3,1419.9,1249.9,1419.7,1249.5,1419.5z
		 M965.6,1415.6c-0.3-1.5,0.7-3,2.2-3.3l0,0c1.5-0.3,3,0.7,3.3,2.2l0,0c0.3,1.5-0.7,3-2.2,3.3l0,0c-0.2,0-0.4,0-0.5,0l0,0
		C967.1,1417.9,965.9,1417,965.6,1415.6z M766.5,1415.9L766.5,1415.9c-1.5-0.5-2.3-2.1-1.8-3.6l0,0c0.5-1.5,2.1-2.3,3.6-1.8l0,0
		c0,0,0,0,0,0l0,0c1.5,0.5,2.3,2.1,1.8,3.6l0,0c-0.4,1.2-1.5,1.9-2.7,1.9l0,0C767.1,1416,766.8,1416,766.5,1415.9z M982.2,1412.4
		c-0.3-1.5,0.7-3,2.2-3.3l0,0c1.5-0.3,3,0.7,3.3,2.2l0,0c0.3,1.5-0.7,3-2.2,3.3l0,0c-0.2,0-0.4,0-0.6,0l0,0
		C983.7,1414.6,982.5,1413.7,982.2,1412.4z M1234.4,1412.5c-1.4-0.6-2.1-2.2-1.5-3.7l0,0c0.6-1.4,2.2-2.1,3.7-1.5l0,0
		c1.4,0.6,2.1,2.2,1.5,3.7l0,0c-0.4,1.1-1.5,1.8-2.6,1.8l0,0C1235.1,1412.7,1234.7,1412.6,1234.4,1412.5z M998.9,1409
		c-0.3-1.5,0.7-3,2.2-3.3l0,0c1.5-0.3,3,0.7,3.3,2.2l0,0c0.3,1.5-0.7,3-2.2,3.3l0,0c-0.2,0-0.4,0-0.6,0l0,0
		C1000.3,1411.3,999.2,1410.4,998.9,1409z M750.5,1409.8L750.5,1409.8c-1.4-0.6-2.1-2.2-1.5-3.7l0,0c0.6-1.4,2.2-2.1,3.7-1.5l0,0
		c1.4,0.6,2.1,2.2,1.5,3.7l0,0c-0.4,1.1-1.5,1.7-2.6,1.7l0,0C751.2,1410.1,750.8,1410,750.5,1409.8z M1015.5,1405.7
		c-0.3-1.5,0.7-3,2.2-3.3l0,0c1.5-0.3,3,0.7,3.3,2.2l0,0c0.3,1.5-0.7,3-2.2,3.3l0,0c-0.2,0-0.4,0.1-0.5,0.1l0,0
		C1017,1408,1015.8,1407.1,1015.5,1405.7z M1218.6,1406.8c-1.5-0.5-2.3-2.1-1.8-3.5l0,0c0.5-1.5,2.1-2.3,3.6-1.8l0,0
		c1.5,0.5,2.3,2.1,1.8,3.6l0,0c-0.4,1.2-1.5,2-2.7,2l0,0C1219.2,1406.9,1218.9,1406.8,1218.6,1406.8z M1032.2,1402.5
		c-0.3-1.5,0.7-3,2.3-3.3l0,0l0,0l0,0c1.5-0.3,3,0.7,3.3,2.3l0,0c0.3,1.5-0.7,3-2.3,3.3h0c-0.2,0-0.3,0-0.5,0l0,0
		C1033.6,1404.8,1032.4,1403.9,1032.2,1402.5z M734.9,1402.8L734.9,1402.8c-1.4-0.7-2-2.4-1.3-3.8l0,0c0.7-1.4,2.4-2,3.8-1.3l0,0
		l0,0l0,0c1.4,0.7,2,2.4,1.3,3.8l0,0c-0.5,1-1.5,1.6-2.5,1.6l0,0C735.7,1403.1,735.3,1403,734.9,1402.8z M1202.5,1402.2
		L1202.5,1402.2c-1.5-0.4-2.5-1.9-2.1-3.4l0,0c0.4-1.5,1.9-2.4,3.4-2.1l0,0c1.5,0.4,2.4,1.9,2.1,3.4l0,0c-0.3,1.3-1.5,2.2-2.7,2.2
		l0,0C1202.9,1402.3,1202.7,1402.3,1202.5,1402.2z M1048.9,1399.5c-0.3-1.5,0.8-3,2.3-3.3l0,0c1.5-0.3,3,0.8,3.3,2.3l0,0
		c0.3,1.5-0.8,3-2.3,3.3l0,0c-0.2,0-0.3,0-0.5,0l0,0C1050.3,1401.8,1049.1,1400.9,1048.9,1399.5z M1065.6,1396.8
		c-0.2-1.5,0.8-3,2.4-3.2l0,0c1.5-0.2,3,0.8,3.2,2.4l0,0c0.2,1.5-0.8,3-2.4,3.2l0,0c-0.1,0-0.3,0-0.4,0l0,0
		C1067,1399.2,1065.8,1398.2,1065.6,1396.8z M1186,1398.7c-1.5-0.3-2.6-1.7-2.3-3.3l0,0c0.3-1.5,1.7-2.6,3.3-2.3l0,0l0,0l0,0
		c1.5,0.3,2.6,1.8,2.3,3.3l0,0c-0.2,1.4-1.4,2.3-2.8,2.3l0,0C1186.4,1398.8,1186.2,1398.7,1186,1398.7z M1082.4,1394.5
		c-0.2-1.5,0.9-3,2.5-3.1l0,0c1.5-0.2,3,0.9,3.1,2.5l0,0c0.2,1.5-0.9,3-2.5,3.1l0,0c-0.1,0-0.2,0-0.3,0l0,0
		C1083.8,1397,1082.6,1395.9,1082.4,1394.5z M1169.4,1396.2c-1.6-0.2-2.7-1.6-2.5-3.1l0,0c0.2-1.5,1.6-2.7,3.1-2.5l0,0
		c1.5,0.2,2.7,1.6,2.5,3.1l0,0c-0.2,1.4-1.4,2.5-2.8,2.5l0,0C1169.7,1396.2,1169.6,1396.2,1169.4,1396.2z M1099.2,1392.7
		c-0.1-1.6,1-2.9,2.6-3l0,0c1.6-0.1,2.9,1,3.1,2.6l0,0c0.1,1.6-1,2.9-2.6,3l0,0c-0.1,0-0.2,0-0.2,0l0,0
		C1100.6,1395.3,1099.4,1394.2,1099.2,1392.7z M719.8,1394.7c-1.4-0.8-1.8-2.5-1-3.9l0,0c0.8-1.4,2.5-1.8,3.9-1l0,0l0,0l0,0
		c1.4,0.8,1.8,2.5,1,3.9l0,0c-0.5,0.9-1.5,1.4-2.5,1.4l0,0C720.7,1395.1,720.2,1395,719.8,1394.7z M1152.7,1394.6
		c-1.6-0.1-2.7-1.4-2.6-3l0,0c0.1-1.6,1.5-2.7,3-2.6l0,0c1.6,0.1,2.7,1.5,2.6,3l0,0c-0.1,1.5-1.3,2.6-2.8,2.6l0,0
		C1152.8,1394.6,1152.8,1394.6,1152.7,1394.6z M1116.2,1391.5c-0.1-1.6,1.1-2.9,2.7-3l0,0c1.6-0.1,2.9,1.1,3,2.7l0,0
		c0.1,1.6-1.1,2.9-2.7,3l0,0c0,0-0.1,0-0.1,0l0,0C1117.5,1394.2,1116.2,1393,1116.2,1391.5z M1133.1,1391.1c0-1.6,1.3-2.8,2.9-2.8
		l0,0l0,0l0,0c1.6,0,2.8,1.3,2.8,2.9l0,0c0,1.6-1.3,2.8-2.9,2.8l0,0C1134.3,1393.9,1133.1,1392.6,1133.1,1391.1z M705.2,1385.6
		c-1.3-0.9-1.6-2.6-0.8-3.9l0,0c0.9-1.3,2.6-1.6,3.9-0.8l0,0c0,0,0,0,0,0l0,0c1.3,0.9,1.6,2.6,0.8,3.9l0,0c-0.5,0.8-1.4,1.3-2.4,1.3
		l0,0C706.2,1386.1,705.7,1386,705.2,1385.6z M691.3,1375.6L691.3,1375.6c-1.2-1-1.5-2.7-0.5-4l0,0c1-1.2,2.7-1.5,4-0.5l0,0
		c1.2,1,1.5,2.7,0.5,4l0,0c-0.6,0.7-1.4,1.1-2.2,1.1l0,0C692.4,1376.2,691.8,1376,691.3,1375.6z M678.1,1364.7c-1.2-1-1.3-2.8-0.2-4
		l0,0c1-1.2,2.8-1.3,4-0.2l0,0c1.2,1,1.3,2.8,0.2,4l0,0c-0.6,0.6-1.3,0.9-2.1,0.9l0,0C679.3,1365.4,678.6,1365.1,678.1,1364.7z
		 M665.7,1352.8c-1.1-1.1-1.1-2.9,0.1-4l0,0c1.1-1.1,2.9-1.1,4,0l0,0c1.1,1.1,1.1,2.9,0,4l0,0c-0.5,0.5-1.3,0.8-2,0.8l0,0
		C667,1353.7,666.2,1353.4,665.7,1352.8z M654.1,1340.2c-1-1.2-0.9-3,0.3-4l0,0c1.2-1,3-0.9,4,0.3l0,0c1,1.2,0.9,3-0.3,4l0,0
		c-0.5,0.5-1.2,0.7-1.8,0.7l0,0C655.5,1341.2,654.7,1340.8,654.1,1340.2z M643.5,1326.7c-0.9-1.3-0.6-3,0.6-3.9l0,0
		c1.3-0.9,3-0.6,3.9,0.6l0,0c0.9,1.3,0.6,3-0.6,3.9l0,0c-0.5,0.4-1.1,0.5-1.7,0.5l0,0C644.9,1327.9,644,1327.5,643.5,1326.7z
		 M633.8,1312.5c-0.8-1.3-0.4-3.1,0.9-3.9l0,0c1.3-0.8,3.1-0.4,3.9,0.9l0,0c0.8,1.3,0.4,3.1-0.9,3.9l0,0c-0.5,0.3-1,0.4-1.5,0.4l0,0
		C635.3,1313.8,634.4,1313.4,633.8,1312.5z M625.3,1297.6L625.3,1297.6c-0.7-1.4-0.2-3.1,1.2-3.8l0,0c1.4-0.7,3.1-0.2,3.8,1.2l0,0
		l0,0l0,0c0.7,1.4,0.2,3.1-1.2,3.8l0,0c-0.4,0.2-0.9,0.3-1.3,0.3l0,0C626.8,1299.1,625.8,1298.6,625.3,1297.6z M618,1282
		c-0.6-1.4,0.1-3.1,1.5-3.7l0,0c1.4-0.6,3.1,0.1,3.7,1.5l0,0c0.6,1.4-0.1,3.1-1.5,3.7l0,0c-0.4,0.1-0.7,0.2-1.1,0.2l0,0
		C619.5,1283.8,618.5,1283.1,618,1282z M611.9,1266L611.9,1266c-0.5-1.5,0.3-3.1,1.8-3.6l0,0c1.5-0.5,3.1,0.3,3.6,1.8l0,0l0,0l0,0
		c0.5,1.5-0.3,3.1-1.8,3.6l0,0c-0.3,0.1-0.6,0.1-0.9,0.1l0,0C613.4,1267.9,612.3,1267.2,611.9,1266z M607.2,1249.5
		c-0.4-1.5,0.6-3,2.1-3.4l0,0c1.5-0.4,3,0.6,3.4,2.1l0,0c0.4,1.5-0.6,3-2.1,3.4l0,0c-0.2,0.1-0.4,0.1-0.7,0.1l0,0
		C608.7,1251.6,607.5,1250.8,607.2,1249.5z M603.9,1232.6c-0.2-1.5,0.8-3,2.4-3.2l0,0c1.5-0.2,3,0.8,3.2,2.4l0,0l0,0l0,0
		c0.2,1.5-0.8,3-2.4,3.2l0,0c-0.1,0-0.3,0-0.4,0l0,0C605.3,1235,604.1,1234,603.9,1232.6z M602,1215.5L602,1215.5
		c-0.1-1.6,1.1-2.9,2.6-3l0,0c1.6-0.1,2.9,1.1,3,2.6l0,0l0,0l0,0c0.1,1.6-1.1,2.9-2.6,3l0,0c-0.1,0-0.1,0-0.2,0l0,0
		C603.3,1218.1,602.1,1217,602,1215.5z M604.4,1201.2c-1.6,0-2.8-1.3-2.8-2.9l0,0c0-1.6,1.3-2.8,2.9-2.8l0,0c1.6,0,2.8,1.3,2.8,2.9
		l0,0c0,0,0,0,0,0l0,0C607.3,1200,606,1201.2,604.4,1201.2L604.4,1201.2C604.5,1201.2,604.4,1201.2,604.4,1201.2z M605.3,1184.3
		c-1.5-0.2-2.7-1.6-2.5-3.1l0,0c0.2-1.5,1.6-2.7,3.1-2.5l0,0c1.6,0.2,2.7,1.6,2.5,3.1l0,0c-0.2,1.4-1.4,2.5-2.8,2.5l0,0
		C605.5,1184.3,605.4,1184.3,605.3,1184.3z M607.8,1167.5c-1.5-0.3-2.5-1.8-2.2-3.3l0,0c0.3-1.5,1.8-2.5,3.3-2.2l0,0
		c1.5,0.3,2.5,1.8,2.2,3.3l0,0c-0.3,1.3-1.5,2.2-2.8,2.2l0,0C608.2,1167.5,608,1167.5,607.8,1167.5z M611.7,1151
		c-1.5-0.5-2.3-2-1.9-3.5v0c0.4-1.5,2-2.3,3.5-1.9l0,0c1.5,0.5,2.3,2,1.9,3.5l0,0c-0.4,1.2-1.5,2-2.7,2l0,0
		C612.3,1151.1,612,1151.1,611.7,1151z M617.2,1134.9c-1.4-0.6-2.1-2.2-1.5-3.7l0,0c0.6-1.4,2.2-2.1,3.7-1.5l0,0
		c1.4,0.6,2.1,2.2,1.5,3.7l0,0c-0.4,1.1-1.5,1.8-2.6,1.8l0,0C617.9,1135.2,617.5,1135.1,617.2,1134.9z M624.1,1119.5
		c-1.4-0.7-1.9-2.4-1.2-3.8l0,0c0.7-1.4,2.4-1.9,3.8-1.2l0,0c1.4,0.7,1.9,2.4,1.2,3.8l0,0c-0.5,1-1.5,1.5-2.5,1.5l0,0
		C624.9,1119.8,624.5,1119.7,624.1,1119.5z M632.4,1104.7c-1.3-0.8-1.7-2.6-0.8-3.9l0,0c0.8-1.3,2.6-1.7,3.9-0.8l0,0
		c1.3,0.8,1.7,2.6,0.8,3.9l0,0c-0.5,0.8-1.4,1.3-2.4,1.3l0,0C633.4,1105.1,632.8,1105,632.4,1104.7z M642,1090.7
		c-1.2-1-1.4-2.7-0.5-4l0,0c1-1.2,2.7-1.4,4-0.5l0,0c1.2,1,1.5,2.7,0.5,4l0,0c-0.6,0.7-1.4,1.1-2.2,1.1l0,0
		C643.1,1091.3,642.5,1091.1,642,1090.7z M652.8,1077.7c-1.1-1.1-1.2-2.8-0.1-4l0,0c1.1-1.1,2.9-1.2,4-0.1l0,0
		c1.1,1.1,1.2,2.9,0.1,4l0,0c-0.6,0.6-1.3,0.9-2.1,0.9l0,0C654,1078.5,653.4,1078.2,652.8,1077.7z M664.7,1065.6
		c-1.1-1.1-1-2.9,0.2-4l0,0c1.1-1.1,2.9-1,4,0.1l0,0c1.1,1.1,1,2.9-0.2,4l0,0c-0.5,0.5-1.2,0.7-1.9,0.7l0,0
		C666,1066.5,665.2,1066.2,664.7,1065.6z M677.4,1054.4c-1-1.2-0.8-3,0.4-4l0,0c1.2-1,3-0.8,4,0.4l0,0c1,1.2,0.8,3-0.4,4l0,0
		c-0.5,0.4-1.1,0.6-1.8,0.6l0,0C678.8,1055.4,678,1055.1,677.4,1054.4z M690.8,1044c-0.9-1.3-0.6-3,0.7-3.9l0,0
		c1.3-0.9,3-0.6,3.9,0.7l0,0c0.9,1.3,0.6,3-0.7,3.9l0,0c-0.5,0.3-1.1,0.5-1.6,0.5l0,0C692.3,1045.2,691.4,1044.8,690.8,1044z
		 M704.8,1034.4c-0.8-1.3-0.4-3.1,0.9-3.9l0,0c1.3-0.8,3.1-0.4,3.9,0.9l0,0c0.8,1.3,0.4,3.1-0.9,3.9l0,0c-0.5,0.3-1,0.4-1.5,0.4l0,0
		C706.3,1035.8,705.4,1035.3,704.8,1034.4z M719.3,1025.6c-0.8-1.4-0.3-3.1,1-3.9l0,0c1.4-0.8,3.1-0.3,3.9,1l0,0
		c0.8,1.4,0.3,3.1-1,3.9l0,0c-0.4,0.2-0.9,0.4-1.4,0.4l0,0C720.8,1027,719.8,1026.5,719.3,1025.6z M734.1,1017.3
		c-0.7-1.4-0.2-3.1,1.2-3.8l0,0c1.4-0.7,3.1-0.2,3.8,1.2l0,0c0.7,1.4,0.2,3.1-1.2,3.8l0,0c-0.4,0.2-0.9,0.3-1.3,0.3l0,0
		C735.6,1018.8,734.6,1018.2,734.1,1017.3z M749.1,1009.5c-0.7-1.4-0.1-3.1,1.3-3.8l0,0c1.4-0.7,3.1-0.1,3.8,1.3l0,0
		c0.7,1.4,0.1,3.1-1.3,3.8l0,0c-0.4,0.2-0.8,0.3-1.3,0.3l0,0C750.6,1011,749.6,1010.4,749.1,1009.5z M764.3,1001.9
		c-0.7-1.4-0.1-3.1,1.3-3.8l0,0c1.4-0.7,3.1-0.1,3.8,1.3l0,0c0.7,1.4,0.1,3.1-1.3,3.8l0,0c-0.4,0.2-0.8,0.3-1.2,0.3l0,0
		C765.8,1003.5,764.8,1002.9,764.3,1001.9z M779.6,994.4c-0.7-1.4-0.1-3.1,1.3-3.8l0,0c1.4-0.7,3.1-0.1,3.8,1.3l0,0
		c0.7,1.4,0.1,3.1-1.3,3.8l0,0l0,0l0,0c-0.4,0.2-0.8,0.3-1.2,0.3l0,0C781.1,996,780.1,995.5,779.6,994.4z M794.8,987
		c-0.7-1.4-0.1-3.1,1.3-3.8l0,0c1.4-0.7,3.1-0.1,3.8,1.3l0,0c0.7,1.4,0.1,3.1-1.3,3.8l0,0c-0.4,0.2-0.8,0.3-1.3,0.3l0,0
		C796.3,988.5,795.3,988,794.8,987z M810,979.4c-0.7-1.4-0.2-3.1,1.2-3.8l0,0c1.4-0.7,3.1-0.2,3.8,1.2l0,0c0.7,1.4,0.2,3.1-1.2,3.8
		l0,0c-0.4,0.2-0.8,0.3-1.3,0.3l0,0C811.5,980.9,810.5,980.3,810,979.4z M825.1,971.5c-0.7-1.4-0.2-3.1,1.2-3.8h0
		c1.4-0.7,3.1-0.2,3.8,1.2l0,0c0.7,1.4,0.2,3.1-1.2,3.8l0,0l0,0l0,0c-0.4,0.2-0.9,0.3-1.3,0.3l0,0
		C826.6,973,825.6,972.5,825.1,971.5z M840,963.4c-0.8-1.4-0.3-3.1,1.1-3.8l0,0c1.4-0.8,3.1-0.3,3.9,1.1l0,0
		c0.8,1.4,0.3,3.1-1.1,3.9l0,0c-0.4,0.2-0.9,0.4-1.4,0.4l0,0C841.5,964.8,840.5,964.3,840,963.4z M854.7,954.9
		c-0.8-1.3-0.4-3.1,0.9-3.9l0,0c1.3-0.8,3.1-0.4,3.9,0.9l0,0c0.8,1.3,0.4,3.1-0.9,3.9l0,0c-0.5,0.3-1,0.4-1.5,0.4l0,0
		C856.1,956.3,855.2,955.8,854.7,954.9z M869,945.9c-0.9-1.3-0.5-3,0.8-3.9l0,0c1.3-0.9,3.1-0.5,3.9,0.8l0,0c0.9,1.3,0.5,3-0.8,3.9
		l0,0c0,0,0,0,0,0l0,0c-0.5,0.3-1,0.5-1.6,0.5l0,0C870.5,947.2,869.6,946.7,869,945.9z M883,936.3c-0.9-1.3-0.7-3,0.6-3.9l0,0
		c1.3-0.9,3-0.7,3.9,0.6l0,0c0.9,1.3,0.6,3-0.6,4l0,0c-0.5,0.4-1.1,0.5-1.7,0.5l0,0C884.4,937.5,883.6,937.1,883,936.3z M896.5,926
		c-1-1.2-0.8-3,0.4-4l0,0c1.2-1,3-0.8,4,0.4l0,0c1,1.2,0.8,3-0.4,4l0,0l0,0l0,0c-0.5,0.4-1.2,0.6-1.8,0.6l0,0
		C897.9,927,897.1,926.7,896.5,926z M909.3,914.9c-1.1-1.1-1-2.9,0.1-4l0,0c1.1-1.1,2.9-1,4,0.1l0,0c1.1,1.1,1,2.9-0.1,4l0,0
		c-0.5,0.5-1.2,0.8-2,0.8l0,0C910.6,915.8,909.9,915.5,909.3,914.9z M921.3,902.9c-1.2-1-1.3-2.8-0.2-4l0,0c1-1.2,2.8-1.3,4-0.2l0,0
		c1.2,1,1.3,2.8,0.2,4l0,0c-0.6,0.6-1.3,0.9-2.1,0.9l0,0C922.5,903.6,921.8,903.4,921.3,902.9z M932.2,889.9
		c-1.3-0.9-1.5-2.7-0.6-3.9l0,0c0.9-1.3,2.7-1.5,3.9-0.6l0,0c1.3,0.9,1.5,2.7,0.6,3.9l0,0l0,0l0,0c-0.5,0.8-1.4,1.2-2.3,1.2l0,0
		C933.2,890.5,932.7,890.3,932.2,889.9z M941.6,875.9c-1.4-0.8-1.8-2.5-1.1-3.8l0,0c0.8-1.4,2.5-1.8,3.8-1.1l0,0
		c1.4,0.8,1.8,2.5,1.1,3.9l0,0l0,0l0,0c-0.5,0.9-1.5,1.4-2.5,1.4l0,0C942.5,876.2,942,876.1,941.6,875.9z M949.3,860.8
		c-1.4-0.6-2.1-2.2-1.5-3.7v0c0.6-1.4,2.2-2.1,3.7-1.6l0,0c1.4,0.6,2.1,2.2,1.5,3.7l0,0c-0.4,1.1-1.5,1.8-2.6,1.8l0,0
		C950,861,949.7,860.9,949.3,860.8z M955,844.9c-1.5-0.4-2.4-1.9-2-3.4l0,0c0.4-1.5,1.9-2.4,3.4-2l0,0c1.5,0.4,2.4,1.9,2,3.4l0,0
		l0,0l0,0c-0.3,1.3-1.5,2.1-2.7,2.1l0,0C955.5,845,955.2,844.9,955,844.9z M958.5,828.3c-1.6-0.2-2.7-1.6-2.5-3.1l0,0
		c0.2-1.6,1.6-2.7,3.1-2.5l0,0c1.5,0.2,2.7,1.6,2.5,3.1l0,0c-0.2,1.4-1.4,2.5-2.8,2.5l0,0C958.7,828.3,958.6,828.3,958.5,828.3z
		 M957,808.7L957,808.7c0-1.6,1.2-2.8,2.8-2.9l0,0c1.6,0,2.8,1.3,2.8,2.8l0,0c0,1.6-1.2,2.8-2.8,2.9l0,0c0,0,0,0,0,0l0,0
		C958.2,811.5,957,810.2,957,808.7z M955.9,792.1c-0.2-1.5,0.9-3,2.5-3.1l0,0c1.6-0.2,3,0.9,3.1,2.5l0,0c0.2,1.5-0.9,3-2.5,3.1l0,0
		c-0.1,0-0.2,0-0.3,0l0,0C957.3,794.6,956.1,793.5,955.9,792.1z M953,775.6c-0.3-1.5,0.6-3,2.1-3.4l0,0c1.5-0.3,3,0.6,3.4,2.1l0,0
		l0,0l0,0c0.3,1.5-0.6,3-2.1,3.4l0,0c-0.2,0-0.4,0.1-0.6,0.1l0,0C954.5,777.8,953.3,777,953,775.6z M948.5,759.7
		c-0.5-1.5,0.2-3.1,1.7-3.6l0,0c1.5-0.5,3.1,0.2,3.6,1.7l0,0c0,0,0,0,0,0l0,0c0.5,1.5-0.2,3.1-1.7,3.6l0,0c-0.3,0.1-0.6,0.2-0.9,0.2
		l0,0C950,761.6,948.9,760.8,948.5,759.7z M941.9,744.5c-0.7-1.4-0.2-3.1,1.2-3.8l0,0c1.4-0.7,3.1-0.2,3.8,1.2l0,0
		c0.7,1.4,0.2,3.1-1.2,3.8l0,0c-0.4,0.2-0.9,0.3-1.3,0.3l0,0C943.4,746,942.4,745.5,941.9,744.5z M933.4,730.3
		c-0.9-1.3-0.6-3,0.7-3.9l0,0c1.3-0.9,3-0.6,3.9,0.7l0,0c0.9,1.3,0.6,3-0.7,3.9l0,0c-0.5,0.3-1.1,0.5-1.6,0.5l0,0
		C934.8,731.6,933.9,731.1,933.4,730.3z M923.1,717.4L923.1,717.4c-1-1.2-0.9-2.9,0.2-4l0,0c1.2-1,3-1,4,0.2l0,0c1,1.2,0.9,3-0.2,4
		l0,0c-0.5,0.5-1.2,0.7-1.9,0.7l0,0C924.4,718.3,923.6,718,923.1,717.4z M911.3,705.7c-1.2-1-1.3-2.8-0.2-4l0,0c1-1.2,2.8-1.3,4-0.2
		l0,0c1.2,1,1.3,2.8,0.2,4l0,0c-0.6,0.6-1.3,0.9-2.1,0.9l0,0C912.5,706.4,911.8,706.1,911.3,705.7z M898.3,695.3
		c-1.3-0.9-1.6-2.7-0.6-3.9l0,0c0.9-1.3,2.7-1.6,3.9-0.6l0,0c1.3,0.9,1.6,2.7,0.6,3.9l0,0c-0.5,0.8-1.4,1.2-2.3,1.2l0,0
		C899.3,695.8,898.8,695.6,898.3,695.3z M884.3,686.1c-1.3-0.8-1.8-2.5-1-3.9l0,0c0.8-1.3,2.5-1.8,3.9-1l0,0l0,0l0,0
		c1.3,0.8,1.8,2.5,1,3.9l0,0c-0.5,0.9-1.5,1.4-2.4,1.4l0,0C885.2,686.5,884.7,686.4,884.3,686.1z M333.4,682.3
		c0-1.6,1.2-2.8,2.8-2.9l0,0c1.6,0,2.8,1.2,2.9,2.8l0,0c0,1.6-1.2,2.8-2.8,2.9l0,0c0,0,0,0,0,0l0,0
		C334.7,685.1,333.4,683.8,333.4,682.3z M316.4,682.1c0-1.6,1.3-2.8,2.9-2.8l0,0c1.6,0,2.8,1.3,2.8,2.9l0,0c0,1.6-1.3,2.8-2.9,2.8
		l0,0C317.6,684.9,316.4,683.6,316.4,682.1z M350.3,681.9c-0.1-1.6,1.2-2.9,2.7-2.9l0,0c1.6-0.1,2.9,1.2,2.9,2.7l0,0
		c0.1,1.6-1.2,2.9-2.7,2.9l0,0c0,0-0.1,0-0.1,0l0,0C351.7,684.7,350.4,683.5,350.3,681.9z M302.1,684.2c-1.6-0.1-2.7-1.4-2.6-3l0,0
		c0.1-1.6,1.5-2.7,3-2.6l0,0c1.6,0.1,2.7,1.4,2.6,3l0,0c-0.1,1.5-1.3,2.6-2.8,2.6l0,0C302.3,684.2,302.2,684.2,302.1,684.2z
		 M367.3,681.1c-0.1-1.6,1.1-2.9,2.6-3l0,0c1.6-0.1,2.9,1.1,3,2.6l0,0c0.1,1.6-1.1,2.9-2.6,3l0,0c-0.1,0-0.1,0-0.2,0l0,0
		C368.6,683.7,367.4,682.6,367.3,681.1z M285.1,682.7L285.1,682.7c-1.5-0.2-2.7-1.6-2.5-3.1l0,0c0.2-1.6,1.6-2.7,3.1-2.5l0,0l0,0
		l0,0c1.5,0.2,2.7,1.6,2.5,3.1l0,0c-0.2,1.4-1.4,2.5-2.8,2.5l0,0C285.3,682.7,285.2,682.7,285.1,682.7z M384.2,679.8
		c-0.1-1.6,1-2.9,2.6-3.1l0,0c0,0,0,0,0,0l0,0c1.6-0.1,2.9,1,3.1,2.6l0,0c0.1,1.6-1,2.9-2.6,3.1l0,0c-0.1,0-0.2,0-0.3,0l0,0
		C385.6,682.4,384.3,681.3,384.2,679.8z M401.1,678.2c-0.2-1.6,1-3,2.5-3.1l0,0l0,0l0,0c1.6-0.2,3,0.9,3.1,2.5l0,0
		c0.2,1.5-0.9,2.9-2.5,3.1l0,0c-0.1,0-0.2,0-0.3,0l0,0C402.5,680.7,401.2,679.6,401.1,678.2z M268.2,680.4c-1.5-0.3-2.6-1.7-2.3-3.2
		l0,0c0.2-1.5,1.7-2.6,3.2-2.3l0,0c0,0,0,0,0,0l0,0c1.5,0.2,2.6,1.7,2.3,3.2l0,0c-0.2,1.4-1.4,2.4-2.8,2.4l0,0
		C268.5,680.4,268.3,680.4,268.2,680.4z M417.9,676.2c-0.2-1.5,0.9-3,2.4-3.2l0,0c1.6-0.2,3,0.9,3.2,2.5l0,0c0.2,1.5-0.9,3-2.4,3.2
		l0,0c-0.1,0-0.2,0-0.4,0l0,0C419.3,678.7,418.1,677.6,417.9,676.2z M869.6,678.1c-1.4-0.7-2-2.4-1.3-3.8l0,0c0.7-1.4,2.4-2,3.8-1.3
		l0,0c1.4,0.7,2,2.4,1.3,3.8l0,0c-0.5,1-1.5,1.6-2.5,1.6l0,0C870.4,678.4,870,678.3,869.6,678.1z M251.4,677.1
		c-1.5-0.3-2.5-1.9-2.1-3.4l0,0c0.3-1.5,1.9-2.5,3.4-2.1l0,0c1.5,0.3,2.5,1.9,2.1,3.4l0,0c-0.3,1.3-1.5,2.2-2.8,2.2l0,0
		C251.8,677.2,251.6,677.1,251.4,677.1z M434.7,674c-0.2-1.5,0.8-3,2.4-3.2l0,0c1.5-0.2,3,0.8,3.2,2.4l0,0c0.2,1.5-0.9,3-2.4,3.2
		l0,0c-0.1,0-0.3,0-0.4,0l0,0C436.1,676.4,434.9,675.4,434.7,674z M451.5,671.5c-0.2-1.5,0.8-3,2.3-3.2l0,0c1.5-0.2,3,0.8,3.2,2.3
		l0,0c0.2,1.5-0.8,3-2.3,3.2l0,0c-0.2,0-0.3,0-0.5,0l0,0C452.9,673.9,451.7,672.9,451.5,671.5z M234.8,672.8L234.8,672.8
		c-1.5-0.4-2.3-2-1.9-3.5l0,0c0.4-1.5,2-2.3,3.5-1.9l0,0c1.5,0.4,2.3,2,1.9,3.5l0,0c-0.4,1.2-1.5,2-2.7,2l0,0
		C235.3,672.9,235.1,672.8,234.8,672.8z M854.3,671.2L854.3,671.2c-1.4-0.6-2.1-2.3-1.5-3.7l0,0c0.6-1.4,2.3-2.1,3.7-1.5l0,0
		c1.4,0.6,2.1,2.3,1.5,3.7l0,0c-0.4,1.1-1.5,1.7-2.6,1.7l0,0C855,671.4,854.7,671.3,854.3,671.2z M468.2,668.7
		c-0.3-1.5,0.8-3,2.3-3.3l0,0c1.5-0.3,3,0.8,3.3,2.3l0,0c0.3,1.5-0.8,3-2.3,3.3l0,0c-0.2,0-0.3,0-0.5,0l0,0
		C469.7,671.1,468.5,670.1,468.2,668.7z M485,665.9c-0.3-1.5,0.7-3,2.3-3.3l0,0c1.5-0.3,3,0.7,3.3,2.3l0,0c0.3,1.5-0.8,3-2.3,3.3
		l0,0c-0.2,0-0.3,0-0.5,0l0,0C486.4,668.2,485.2,667.2,485,665.9z M218.5,667.2c-1.5-0.6-2.2-2.2-1.6-3.7l0,0
		c0.6-1.5,2.2-2.2,3.6-1.6l0,0c1.5,0.6,2.2,2.2,1.6,3.6l0,0c-0.4,1.1-1.5,1.8-2.6,1.8l0,0C219.2,667.4,218.9,667.3,218.5,667.2z
		 M838.6,665.2c-1.5-0.5-2.3-2.1-1.7-3.6l0,0c0.5-1.5,2.1-2.2,3.6-1.7l0,0l0,0l0,0c1.5,0.5,2.3,2.1,1.7,3.6l0,0
		c-0.4,1.2-1.5,1.9-2.7,1.9l0,0C839.2,665.3,838.9,665.3,838.6,665.2z M501.6,662.9c-0.3-1.5,0.7-3,2.3-3.3l0,0
		c1.5-0.3,3,0.7,3.3,2.3l0,0c0.3,1.5-0.7,3-2.3,3.3l0,0c-0.2,0-0.3,0-0.5,0l0,0C503.1,665.2,501.9,664.2,501.6,662.9z M518.3,659.8
		c-0.3-1.5,0.7-3,2.3-3.3l0,0c1.5-0.3,3,0.7,3.3,2.3l0,0c0.3,1.5-0.7,3-2.3,3.3l0,0c-0.2,0-0.3,0-0.5,0l0,0
		C519.8,662.1,518.6,661.2,518.3,659.8z M202.8,660.3c-1.4-0.7-2-2.4-1.3-3.8l0,0c0.7-1.4,2.4-2,3.8-1.3l0,0c1.4,0.7,2,2.4,1.3,3.8
		l0,0c-0.5,1-1.5,1.6-2.5,1.6l0,0C203.6,660.6,203.2,660.5,202.8,660.3z M822.6,660c-1.5-0.4-2.4-2-1.9-3.5l0,0
		c0.4-1.5,2-2.4,3.5-1.9l0,0c1.5,0.4,2.4,2,1.9,3.5l0,0c-0.4,1.2-1.5,2-2.7,2l0,0C823.1,660.2,822.9,660.1,822.6,660z M535,656.8
		c-0.3-1.5,0.7-3,2.3-3.3l0,0c0,0,0,0,0,0l0,0c1.5-0.3,3,0.7,3.3,2.3l0,0c0.3,1.5-0.7,3-2.3,3.3l0,0c-0.2,0-0.3,0-0.5,0l0,0
		C536.4,659.1,535.3,658.1,535,656.8z M551.7,653.8c-0.3-1.5,0.8-3,2.3-3.3l0,0c1.5-0.3,3,0.8,3.3,2.3l0,0c0.3,1.5-0.8,3-2.3,3.3
		l0,0c-0.2,0-0.3,0-0.5,0l0,0C553.1,656.1,551.9,655.2,551.7,653.8z M806.3,655.7c-1.5-0.4-2.5-1.9-2.1-3.4l0,0
		c0.4-1.5,1.9-2.4,3.4-2.1l0,0c1.5,0.4,2.5,1.9,2.1,3.4l0,0c-0.3,1.3-1.5,2.2-2.7,2.2l0,0C806.8,655.8,806.6,655.7,806.3,655.7z
		 M568.4,650.9c-0.2-1.5,0.8-3,2.3-3.2l0,0c1.5-0.2,3,0.8,3.2,2.3l0,0c0.2,1.5-0.8,3-2.3,3.2l0,0c-0.2,0-0.3,0-0.5,0l0,0
		C569.8,653.3,568.6,652.3,568.4,650.9z M187.7,652.1L187.7,652.1c-1.3-0.8-1.7-2.6-0.9-3.9l0,0c0.8-1.3,2.6-1.7,3.9-0.9l0,0
		c1.3,0.8,1.7,2.6,0.9,3.9l0,0c-0.5,0.9-1.5,1.3-2.4,1.3l0,0C188.7,652.5,188.2,652.3,187.7,652.1z M789.9,652
		c-1.5-0.3-2.5-1.8-2.2-3.3l0,0c0.3-1.5,1.8-2.5,3.3-2.2l0,0c1.5,0.3,2.5,1.8,2.2,3.3l0,0c-0.3,1.3-1.4,2.3-2.8,2.3l0,0
		C790.3,652.1,790.1,652,789.9,652z M585.2,648.3c-0.2-1.5,0.8-3,2.4-3.2l0,0c1.5-0.2,3,0.8,3.2,2.4l0,0c0.2,1.5-0.8,3-2.4,3.2l0,0
		c-0.1,0-0.3,0-0.4,0l0,0C586.6,650.7,585.4,649.7,585.2,648.3z M773.3,649c-1.5-0.2-2.6-1.7-2.3-3.2l0,0c0.2-1.5,1.7-2.6,3.2-2.3
		l0,0c0,0,0,0,0,0l0,0c1.5,0.2,2.6,1.7,2.3,3.2l0,0c-0.2,1.4-1.4,2.4-2.8,2.4l0,0C773.6,649,773.5,649,773.3,649z M602,645.8
		c-0.2-1.5,0.9-3,2.4-3.2l0,0c1.5-0.2,3,0.9,3.2,2.4l0,0c0.2,1.5-0.9,3-2.4,3.2l0,0c-0.1,0-0.2,0-0.4,0l0,0
		C603.3,648.3,602.1,647.3,602,645.8z M756.6,646.5c-1.5-0.2-2.6-1.6-2.4-3.2l0,0c0.2-1.5,1.6-2.6,3.2-2.4l0,0
		c1.5,0.2,2.6,1.6,2.4,3.2l0,0c-0.2,1.4-1.4,2.5-2.8,2.5l0,0C756.9,646.6,756.7,646.6,756.6,646.5z M618.8,643.7
		c-0.2-1.5,0.9-3,2.5-3.1l0,0c1.5-0.2,2.9,0.9,3.1,2.5l0,0c0.2,1.5-0.9,3-2.5,3.1l0,0c-0.1,0-0.2,0-0.3,0l0,0
		C620.2,646.2,618.9,645.2,618.8,643.7z M739.8,644.7c-1.6-0.1-2.7-1.5-2.5-3.1l0,0c0.1-1.6,1.5-2.7,3.1-2.6l0,0
		c1.5,0.1,2.7,1.5,2.5,3.1l0,0c-0.1,1.5-1.4,2.6-2.8,2.6l0,0C740,644.7,739.9,644.7,739.8,644.7z M635.6,641.9
		c-0.1-1.6,1-2.9,2.6-3.1l0,0c1.6-0.1,2.9,1,3.1,2.6l0,0c0.1,1.6-1,2.9-2.6,3.1l0,0c-0.1,0-0.2,0-0.3,0l0,0
		C637,644.5,635.8,643.4,635.6,641.9z M723,643.3L723,643.3c-1.6-0.1-2.7-1.4-2.6-3l0,0c0.1-1.6,1.4-2.7,3-2.6l0,0
		c1.6,0.1,2.7,1.4,2.6,3l0,0c-0.1,1.5-1.3,2.7-2.8,2.7l0,0C723.1,643.4,723.1,643.3,723,643.3z M652.5,640.6c-0.1-1.6,1.1-2.9,2.6-3
		l0,0c1.6-0.1,2.9,1.1,3,2.7l0,0c0.1,1.6-1.1,2.9-2.6,3l0,0c-0.1,0-0.1,0-0.2,0l0,0C653.9,643.2,652.6,642.1,652.5,640.6z
		 M173.5,642.2c-1.2-1-1.4-2.8-0.4-4l0,0c1-1.2,2.8-1.4,4-0.4l0,0c1.2,1,1.4,2.8,0.4,4l0,0c-0.6,0.7-1.4,1-2.2,1l0,0
		C174.6,642.8,174,642.6,173.5,642.2z M706.1,642.5c-1.6-0.1-2.8-1.4-2.7-2.9l0,0c0.1-1.6,1.4-2.8,2.9-2.7l0,0
		c1.6,0.1,2.8,1.4,2.7,2.9l0,0C709,641.3,707.7,642.5,706.1,642.5L706.1,642.5C706.2,642.5,706.2,642.5,706.1,642.5z M669.5,639.7
		c0-1.6,1.2-2.9,2.7-2.9l0,0c1.6,0,2.9,1.2,2.9,2.7l0,0c0,1.6-1.2,2.9-2.7,2.9l0,0c0,0,0,0-0.1,0l0,0
		C670.8,642.5,669.5,641.3,669.5,639.7z M689.2,642.2c-1.6,0-2.8-1.3-2.8-2.8l0,0c0-1.6,1.3-2.8,2.8-2.8l0,0c1.6,0,2.8,1.3,2.8,2.8
		l0,0C692.1,641,690.8,642.2,689.2,642.2L689.2,642.2C689.3,642.2,689.3,642.2,689.2,642.2z M161.4,629.3c-0.9-1.3-0.6-3,0.7-3.9
		l0,0c1.3-0.9,3-0.6,3.9,0.7l0,0c0.9,1.3,0.6,3-0.7,3.9l0,0c-0.5,0.3-1.1,0.5-1.6,0.5l0,0C162.8,630.5,161.9,630.1,161.4,629.3z
		 M153.3,613.6c-0.5-1.5,0.3-3.1,1.7-3.6l0,0c1.5-0.5,3.1,0.3,3.6,1.7l0,0l0,0l0,0c0.5,1.5-0.3,3.1-1.7,3.6l0,0
		c-0.3,0.1-0.6,0.2-0.9,0.2l0,0C154.8,615.5,153.7,614.7,153.3,613.6z M149.5,596.5c-0.2-1.5,0.9-3,2.5-3.1l0,0
		c1.6-0.2,3,0.9,3.2,2.5l0,0c0.2,1.6-0.9,3-2.5,3.1l0,0c-0.1,0-0.2,0-0.3,0l0,0C150.9,599,149.6,597.9,149.5,596.5z M148.5,579.2
		c0-1.6,1.3-2.8,2.8-2.8l0,0c1.6,0,2.8,1.3,2.8,2.8l0,0l0,0l0,0c0,1.6-1.3,2.8-2.8,2.8l0,0C149.8,582,148.5,580.8,148.5,579.2z
		 M151.7,565.1c-1.6-0.1-2.8-1.4-2.7-3l0,0c0.1-1.6,1.4-2.8,3-2.7l0,0c1.6,0.1,2.8,1.4,2.7,3l0,0c-0.1,1.5-1.3,2.7-2.8,2.7l0,0
		C151.7,565.1,151.7,565.1,151.7,565.1z M152.4,548.1c-1.6,0-2.8-1.3-2.8-2.9l0,0c0-1.6,1.3-2.8,2.9-2.8l0,0c1.6,0,2.8,1.3,2.8,2.9
		l0,0l0,0l0,0C155.3,546.9,154,548.1,152.4,548.1L152.4,548.1C152.5,548.1,152.5,548.1,152.4,548.1z M149.2,528.6
		c-0.1-1.6,1-2.9,2.6-3l0,0c1.6-0.1,2.9,1,3,2.6l0,0c0.1,1.5-1,2.9-2.6,3l0,0c-0.1,0-0.1,0-0.2,0l0,0
		C150.5,531.2,149.3,530.1,149.2,528.6z M146.9,512.2L146.9,512.2c-0.3-1.5,0.7-3,2.2-3.3l0,0c1.5-0.3,3,0.7,3.3,2.2l0,0
		c0.3,1.5-0.7,3-2.2,3.3l0,0c-0.2,0-0.4,0.1-0.6,0.1l0,0C148.4,514.4,147.2,513.5,146.9,512.2z M142.4,496.3
		c-0.5-1.5,0.2-3.1,1.7-3.6l0,0c1.5-0.5,3.1,0.2,3.6,1.7l0,0c0.5,1.5-0.2,3.1-1.7,3.6l0,0c-0.3,0.1-0.7,0.2-1,0.2l0,0
		C143.9,498.1,142.9,497.4,142.4,496.3z M135.4,481.5c-0.8-1.3-0.4-3.1,1-3.9l0,0c1.3-0.8,3.1-0.4,3.9,1l0,0c0.8,1.3,0.4,3.1-1,3.9
		l0,0c-0.5,0.3-1,0.4-1.5,0.4l0,0C136.8,482.9,135.9,482.4,135.4,481.5z M125.6,468.3c-1-1.1-1-2.9,0.2-4l0,0c1.1-1.1,2.9-1,4,0.2
		l0,0c1,1.2,1,2.9-0.2,4l0,0c-0.5,0.5-1.2,0.7-1.9,0.7l0,0C126.9,469.3,126.2,469,125.6,468.3z M113.5,457.3c-1.3-0.9-1.5-2.7-0.6-4
		l0,0c0.9-1.2,2.7-1.5,4-0.6l0,0c1.2,0.9,1.5,2.7,0.6,4l0,0c-0.5,0.7-1.4,1.1-2.3,1.1l0,0C114.6,457.9,114,457.7,113.5,457.3z
		 M99.5,448.4c-1.4-0.7-1.9-2.5-1.1-3.8l0,0c0.7-1.4,2.5-1.9,3.8-1.1l0,0c1.4,0.7,1.9,2.5,1.1,3.8l0,0c-0.5,0.9-1.5,1.5-2.5,1.5l0,0
		C100.4,448.8,100,448.7,99.5,448.4z M84.5,441.4c-1.5-0.6-2.2-2.2-1.6-3.7l0,0c0.6-1.4,2.2-2.2,3.7-1.6l0,0
		c1.5,0.6,2.2,2.2,1.6,3.7l0,0c-0.4,1.1-1.5,1.8-2.6,1.8l0,0C85.2,441.6,84.9,441.5,84.5,441.4z M68.7,436c-1.5-0.4-2.4-2-1.9-3.5
		l0,0c0.4-1.5,2-2.4,3.5-1.9l0,0c1.5,0.4,2.4,2,1.9,3.5l0,0c-0.4,1.2-1.5,2-2.7,2l0,0C69.3,436.1,69,436,68.7,436z M52.5,431.9
		c-1.5-0.3-2.5-1.8-2.2-3.3l0,0c0.3-1.5,1.8-2.5,3.4-2.2l0,0c1.5,0.3,2.5,1.8,2.2,3.3l0,0c-0.3,1.3-1.5,2.2-2.8,2.2l0,0
		C52.9,432,52.7,432,52.5,431.9z M35.9,428.8c-1.5-0.2-2.6-1.7-2.3-3.2l0,0c0.2-1.5,1.7-2.6,3.2-2.3l0,0c1.5,0.2,2.6,1.7,2.3,3.2
		l0,0c-0.2,1.4-1.4,2.4-2.8,2.4l0,0C36.3,428.9,36.1,428.9,35.9,428.8z M19.2,426.4c-1.5-0.2-2.6-1.6-2.4-3.2l0,0
		c0.2-1.5,1.6-2.6,3.2-2.4l0,0l0,0l0,0c1.5,0.2,2.6,1.6,2.4,3.2l0,0c-0.2,1.4-1.4,2.4-2.8,2.4l0,0C19.5,426.4,19.4,426.4,19.2,426.4
		z"/>
	<path d="M1597.2,3901.5c-0.2,0-0.4,0-0.5-0.1c-0.2,0-0.4-0.1-0.5-0.2c-0.2-0.1-0.3-0.1-0.5-0.3c-0.2-0.1-0.3-0.2-0.4-0.3
		c-0.1-0.1-0.2-0.3-0.4-0.4c-0.1-0.1-0.2-0.3-0.3-0.5c-0.1-0.2-0.1-0.3-0.2-0.5c0-0.2-0.1-0.4-0.1-0.5c0-0.2,0-0.4,0.1-0.6
		c0-0.2,0.1-0.4,0.2-0.5c0.1-0.2,0.2-0.3,0.3-0.5c0.1-0.1,0.2-0.3,0.4-0.4c0.6-0.7,1.6-1,2.5-0.8c0.2,0,0.4,0.1,0.5,0.2
		c0.2,0.1,0.3,0.2,0.5,0.3c0.2,0.1,0.3,0.2,0.4,0.3c0.1,0.1,0.2,0.3,0.4,0.4c0.1,0.2,0.2,0.3,0.3,0.5c0.1,0.2,0.1,0.3,0.2,0.5
		c0,0.2,0.1,0.4,0.1,0.6c0,0.2,0,0.4-0.1,0.5c0,0.2-0.1,0.4-0.2,0.5c-0.1,0.2-0.2,0.3-0.3,0.5c-0.1,0.2-0.2,0.3-0.4,0.4
		s-0.3,0.2-0.4,0.3c-0.1,0.1-0.3,0.2-0.5,0.3c-0.2,0.1-0.3,0.1-0.5,0.2C1597.5,3901.5,1597.3,3901.5,1597.2,3901.5z"/>
</g>
</svg>
